<?xml version="1.0" encoding="UTF-8"?>
<svg version="1.1" xmlns="http://www.w3.org/2000/svg" width="500" height="500">
<path d="M0 0 C0.99 0.495 0.99 0.495 2 1 C2 1.66 2 2.32 2 3 C2.66 2.67 3.32 2.34 4 2 C9.85080968 1.45280197 15.13089477 1.34817107 20 5 C21.375 8.1875 21.375 8.1875 22 11 C22.66 11 23.32 11 24 11 C24 11.99 24 12.98 24 14 C23.34 14 22.68 14 22 14 C22 14.99 22 15.98 22 17 C20.71889593 18.3835924 19.36794747 19.70220368 18 21 C16.8863366 22.2625194 15.78311291 23.53428494 14.6875 24.8125 C12.30719929 27.57754759 9.84552837 30.12756084 7.1875 32.625 C4.22531897 35.52767292 2.99822625 37.91634718 2 42 C1.36184656 43.34721283 0.70674629 44.68747118 0 46 C-0.66 46 -1.32 46 -2 46 C-2.0928125 47.11375 -2.0928125 47.11375 -2.1875 48.25 C-3.25742693 51.87129113 -4.86885512 52.98712115 -8 55 C-8.99 55 -9.98 55 -11 55 C-11 55.66 -11 56.32 -11 57 C-6.71 57.33 -2.42 57.66 2 58 C2.495 60.475 2.495 60.475 3 63 C-6.66760317 63.60738868 -14.81640916 62.45572723 -23 57 C-23 56.34 -23 55.68 -23 55 C-23.99 55.495 -23.99 55.495 -25 56 C-25 56.66 -25 57.32 -25 58 C-24.43796875 58.12375 -23.8759375 58.2475 -23.296875 58.375 C-20.82788789 59.04683323 -18.60655637 60.00468426 -16.25 61 C-10.58118553 63.14785934 -5.30662694 63.50709606 0.69238281 63.49609375 C2.69140625 63.53125 2.69140625 63.53125 6 64 C7.99063062 66.5055404 8 67.78117431 8 71 C-1.43662806 73.13309529 -9.90676519 70.45791614 -19 68 C-9.29568034 72.09508525 0.67839368 73.11725258 11 71 C10.875 72.75 10.875 72.75 10 75 C0.13951469 83.5279873 -13.28049969 84.14467837 -25.69726562 83.27929688 C-30.99457771 82.63678998 -35.42182095 80.63570245 -40 78 C-40.75539062 77.58105469 -41.51078125 77.16210938 -42.2890625 76.73046875 C-47.32187755 73.76167336 -47.32187755 73.76167336 -49.36328125 71.46875 C-50.83718871 69.69138088 -50.83718871 69.69138088 -54 68 C-57.344061 68.4084692 -60.43240595 69.23845719 -63.67578125 70.14453125 C-69.58600313 71.66549317 -74.70517867 71.64416037 -80.5625 70 C-83.24421578 67.79961782 -83.43974995 67.32215584 -83.9375 64.0625 C-84.09520137 61.20810514 -84.01628844 58.71010251 -83 56 C-82.34 56 -81.68 56 -81 56 C-80.88527344 55.41734375 -80.77054687 54.8346875 -80.65234375 54.234375 C-79.95175938 51.83476865 -79.01807405 50.27139067 -77.5625 48.25 C-77.13066406 47.63640625 -76.69882813 47.0228125 -76.25390625 46.390625 C-75.63322266 45.70226562 -75.63322266 45.70226562 -75 45 C-74.34 45 -73.68 45 -73 45 C-72.731875 44.401875 -72.46375 43.80375 -72.1875 43.1875 C-71 41 -71 41 -69.5 39.5625 C-66.41783384 36.35191025 -65.82017206 32.34145021 -65.3125 28.0625 C-64.0557094 20.56262766 -60.4478002 11.4478002 -55 6 C-54.01 6.33 -53.02 6.66 -52 7 C-52.33 7.99 -52.66 8.98 -53 10 C-53.72470764 20.81121239 -52.96563931 29.82034551 -49 40 C-49.20496094 39.28714844 -49.40992188 38.57429688 -49.62109375 37.83984375 C-54.58654772 20.1875361 -54.58654772 20.1875361 -52.375 11.5625 C-50.31008822 9.21600934 -48.0030761 9.41463383 -45 9 C-45.03480469 10.09957031 -45.06960937 11.19914063 -45.10546875 12.33203125 C-45.36308 23.87223043 -44.85743929 33.69490177 -37.98828125 43.44140625 C-37 45 -37 45 -37 47 C-36.34 47 -35.68 47 -35 47 C-35 47.66 -35 48.32 -35 49 C-34.34 49 -33.68 49 -33 49 C-33.78130071 46.50447516 -33.78130071 46.50447516 -35 44 C-35.99 43.67 -36.98 43.34 -38 43 C-38 42.01 -38 41.02 -38 40 C-38.66 40 -39.32 40 -40 40 C-40.19335938 39.34773438 -40.38671875 38.69546875 -40.5859375 38.0234375 C-40.97652344 36.71246094 -40.97652344 36.71246094 -41.375 35.375 C-41.64699219 34.45589844 -41.91898438 33.53679687 -42.19921875 32.58984375 C-42.78921998 30.68169342 -43.46542658 28.79968933 -44.1875 26.9375 C-45.65639764 21.62687007 -45.49647033 16.29151907 -44 11 C-43.01 11 -42.02 11 -41 11 C-40.505 12.485 -40.505 12.485 -40 14 C-38.7315625 12.7625 -38.7315625 12.7625 -37.4375 11.5 C-34.80490072 9.30202796 -34.04671323 9.00491718 -30.4375 8.625 C-27 9 -27 9 -24.57104492 9.61303711 C-21.6237855 10.0566233 -20.17578967 9.65066518 -17.42578125 8.56640625 C-16.59369141 8.24736328 -15.76160156 7.92832031 -14.90429688 7.59960938 C-14.04900391 7.25736328 -13.19371094 6.91511719 -12.3125 6.5625 C-10.60126845 5.89454716 -8.889073 5.22905683 -7.17578125 4.56640625 C-6.42208252 4.26677979 -5.66838379 3.96715332 -4.8918457 3.65844727 C-3 3 -3 3 -1 3 C-0.67 2.01 -0.34 1.02 0 0 Z M1 9 C2.918125 9.185625 2.918125 9.185625 4.875 9.375 C8.75 9.75 8.75 9.75 11 12 C11.35479108 16.87837728 10.76010036 18.99895714 7.76953125 22.9375 C1.22332705 30.38833647 1.22332705 30.38833647 -2 32 C-2 32.66 -2 33.32 -2 34 C-2.639375 34.28875 -3.27875 34.5775 -3.9375 34.875 C-6.15206079 35.82823451 -6.15206079 35.82823451 -7 38 C-1.25190165 36.02922342 2.9617138 32.48698467 7 28 C7 27.34 7 26.68 7 26 C7.66 26 8.32 26 9 26 C9 25.34 9 24.68 9 24 C9.66 24 10.32 24 11 24 C14.77089394 19.49893296 17.69306887 14.98515697 18 9 C14.04675003 5.93941938 10.89665109 5.65081895 6.0859375 5.6015625 C3.53103964 6.0895767 2.63574238 7.0308579 1 9 Z M-2 7 C-6.95 8.485 -6.95 8.485 -12 10 C-7.44968209 11.13757948 -5.36915594 10.4283779 -1 9 C-1.33 8.34 -1.66 7.68 -2 7 Z M-7 14 C-6.67 14.99 -6.34 15.98 -6 17 C-5.34 17.33 -4.68 17.66 -4 18 C-3.87625 18.61875 -3.7525 19.2375 -3.625 19.875 C-2.80178529 22.67393003 -1.39815356 23.45280415 1 25 C4.79726648 21.60244578 6.88400359 19.02198383 8 14 C7.67 13.34 7.34 12.68 7 12 C6.01 12.33 5.02 12.66 4 13 C4.66 13.99 5.32 14.98 6 16 C4.35 16 2.7 16 1 16 C1.66 14.68 2.32 13.36 3 12 C-0.85645121 11.77963136 -3.49223216 12.39644899 -7 14 Z M-30 14 C-29.67 14.99 -29.34 15.98 -29 17 C-28.67 16.01 -28.34 15.02 -28 14 C-28.66 14 -29.32 14 -30 14 Z M-20 14 C-20 14.99 -20 15.98 -20 17 C-19.34 17 -18.68 17 -18 17 C-18 16.34 -18 15.68 -18 15 C-17.01 14.67 -16.02 14.34 -15 14 C-16.65 14 -18.3 14 -20 14 Z M-37 16 C-36.01 16.495 -36.01 16.495 -35 17 C-34.67 17.66 -34.34 18.32 -34 19 C-34 18.01 -34 17.02 -34 16 C-34.99 16 -35.98 16 -37 16 Z M-8 21 C-8 21.66 -8 22.32 -8 23 C-8.99 23.33 -9.98 23.66 -11 24 C-8.525 24.99 -8.525 24.99 -6 26 C-6.33 24.35 -6.66 22.7 -7 21 C-7.33 21 -7.66 21 -8 21 Z M-9 38 C-9.99 39.485 -9.99 39.485 -11 41 C-9.68 40.34 -8.36 39.68 -7 39 C-7.66 38.67 -8.32 38.34 -9 38 Z M-48 41 C-47.67 42.32 -47.34 43.64 -47 45 C-46.67 44.34 -46.34 43.68 -46 43 C-46.66 42.34 -47.32 41.68 -48 41 Z M-34 41 C-33 43 -33 43 -33 43 Z M-46 45 C-44.60240095 48.54518884 -44.60240095 48.54518884 -43 52 C-42.01 51.67 -41.02 51.34 -40 51 C-40.66 51 -41.32 51 -42 51 C-42.28875 50.195625 -42.5775 49.39125 -42.875 48.5625 C-43.73262568 45.8673532 -43.73262568 45.8673532 -46 45 Z M-19 45 C-21.02914845 45.99367798 -21.02914845 45.99367798 -23.125 47.4375 C-23.84945312 47.91058594 -24.57390625 48.38367188 -25.3203125 48.87109375 C-25.87460938 49.24363281 -26.42890625 49.61617188 -27 50 C-26.01 50.495 -26.01 50.495 -25 51 C-22.97085155 50.00632202 -22.97085155 50.00632202 -20.875 48.5625 C-20.15054688 48.08941406 -19.42609375 47.61632812 -18.6796875 47.12890625 C-17.84824219 46.57009766 -17.84824219 46.57009766 -17 46 C-17.66 45.67 -18.32 45.34 -19 45 Z M-7 45 C-6 48 -6 48 -6 48 Z M-71 47 C-71.825 47.94875 -72.65 48.8975 -73.5 49.875 C-73.9640625 50.40867187 -74.428125 50.94234375 -74.90625 51.4921875 C-76.19572458 52.95936421 -76.19572458 52.95936421 -76 55 C-76.66 55 -77.32 55 -78 55 C-80.08466413 58.38757921 -80.42905061 61.05273438 -80 65 C-74.95831641 68.36112239 -69.71863656 67.6748763 -63.86914062 66.61328125 C-50.63076312 63.79180267 -38.54082423 59.13197003 -27 52 C-30.02878056 50.61888822 -30.02878056 50.61888822 -32.96875 52.29296875 C-34.14990028 52.91683941 -35.32677534 53.54884948 -36.5 54.1875 C-48.78431176 60.60100892 -59.12444174 63.20207124 -73 63 C-73 62.34 -73 61.68 -73 61 C-73.66 61 -74.32 61 -75 61 C-73.84712615 56.47718721 -72.38740825 52.97901376 -70 49 C-70.33 48.34 -70.66 47.68 -71 47 Z M-12 47 C-13.485 48.98 -13.485 48.98 -15 51 C-14.67 51.66 -14.34 52.32 -14 53 C-12.68 51.68 -11.36 50.36 -10 49 C-10.66 48.34 -11.32 47.68 -12 47 Z M-67 50 C-70.17626927 53.40941454 -70.17626927 53.40941454 -71.25 57.8125 C-71.1675 58.534375 -71.085 59.25625 -71 60 C-68.08365871 60.2502157 -68.08365871 60.2502157 -65 60 C-62.71861055 57.24301816 -62.71861055 57.24301816 -63.1875 54.4375 C-63.83372442 51.66744883 -63.83372442 51.66744883 -67 50 Z M-19 51 C-19.33 51.66 -19.66 52.32 -20 53 C-19.34 53 -18.68 53 -18 53 C-18.33 52.34 -18.66 51.68 -19 51 Z M-34 59 C-30.22406041 63.28070998 -30.22406041 63.28070998 -25 65 C-27.77280706 61.91910327 -30.06326356 60.31224548 -34 59 Z M-25 65 C-24.67 65.66 -24.34 66.32 -24 67 C-23.01 66.67 -22.02 66.34 -21 66 C-22.32 65.67 -23.64 65.34 -25 65 Z " fill="#2E3268" transform="translate(183,214)"/>
<path d="M0 0 C0.66 0.33 1.32 0.66 2 1 C2 1.66 2 2.32 2 3 C2.66 2.67 3.32 2.34 4 2 C9.85080968 1.45280197 15.13089477 1.34817107 20 5 C21.375 8.1875 21.375 8.1875 22 11 C22.66 11 23.32 11 24 11 C24 11.99 24 12.98 24 14 C23.34 14 22.68 14 22 14 C22 14.99 22 15.98 22 17 C20.71889593 18.3835924 19.36794747 19.70220368 18 21 C16.8863366 22.2625194 15.78311291 23.53428494 14.6875 24.8125 C12.30719929 27.57754759 9.84552837 30.12756084 7.1875 32.625 C4.22531897 35.52767292 2.99822625 37.91634718 2 42 C1.36184656 43.34721283 0.70674629 44.68747118 0 46 C-0.66 46 -1.32 46 -2 46 C-2.0928125 47.11375 -2.0928125 47.11375 -2.1875 48.25 C-3.25742693 51.87129113 -4.86885512 52.98712115 -8 55 C-8.99 55 -9.98 55 -11 55 C-11 55.66 -11 56.32 -11 57 C-6.71 57.33 -2.42 57.66 2 58 C2.495 60.475 2.495 60.475 3 63 C-6.66760317 63.60738868 -14.81640916 62.45572723 -23 57 C-22.34 55.35 -21.68 53.7 -21 52 C-20.01 52.33 -19.02 52.66 -18 53 C-17.855625 52.360625 -17.71125 51.72125 -17.5625 51.0625 C-17 49 -17 49 -16 48 C-16.66 47.34 -17.32 46.68 -18 46 C-15.93814793 42.9072219 -15.09630198 42.31923802 -11.875 40.8125 C-11.15054688 40.46832031 -10.42609375 40.12414062 -9.6796875 39.76953125 C-9.12539062 39.51558594 -8.57109375 39.26164062 -8 39 C-8.99 39.33 -9.98 39.66 -11 40 C-11 37 -11 37 -10 36 C-10.99 36 -11.98 36 -13 36 C-13.33 36.99 -13.66 37.98 -14 39 C-22.01279407 45.36831722 -31.8362518 49.57334623 -41 54 C-41.66 53.34 -42.32 52.68 -43 52 C-43 51.01 -43 50.02 -43 49 C-43.95953672 47.31332528 -43.95953672 47.31332528 -45.25 45.5625 C-51.3446367 36.17814462 -53.54381835 25.05763974 -53 14 C-52.375 11.5625 -52.375 11.5625 -51 10 C-49.00940094 9.61447892 -47.00853331 9.2773176 -45 9 C-45.05220703 10.64935547 -45.05220703 10.64935547 -45.10546875 12.33203125 C-45.36308 23.87223043 -44.85743929 33.69490177 -37.98828125 43.44140625 C-37 45 -37 45 -37 47 C-36.34 47 -35.68 47 -35 47 C-35 47.66 -35 48.32 -35 49 C-34.34 49 -33.68 49 -33 49 C-33.78130071 46.50447516 -33.78130071 46.50447516 -35 44 C-36.485 43.505 -36.485 43.505 -38 43 C-38 42.01 -38 41.02 -38 40 C-38.66 40 -39.32 40 -40 40 C-40.19335938 39.34773438 -40.38671875 38.69546875 -40.5859375 38.0234375 C-40.84632813 37.14945313 -41.10671875 36.27546875 -41.375 35.375 C-41.64699219 34.45589844 -41.91898438 33.53679687 -42.19921875 32.58984375 C-42.78921998 30.68169342 -43.46542658 28.79968933 -44.1875 26.9375 C-45.65639764 21.62687007 -45.49647033 16.29151907 -44 11 C-43.01 11 -42.02 11 -41 11 C-40.67 11.99 -40.34 12.98 -40 14 C-38.7315625 12.7625 -38.7315625 12.7625 -37.4375 11.5 C-34.80490072 9.30202796 -34.04671323 9.00491718 -30.4375 8.625 C-27 9 -27 9 -24.57104492 9.61303711 C-21.6237855 10.0566233 -20.17578967 9.65066518 -17.42578125 8.56640625 C-16.59369141 8.24736328 -15.76160156 7.92832031 -14.90429688 7.59960938 C-14.04900391 7.25736328 -13.19371094 6.91511719 -12.3125 6.5625 C-10.60126845 5.89454716 -8.889073 5.22905683 -7.17578125 4.56640625 C-6.42208252 4.26677979 -5.66838379 3.96715332 -4.8918457 3.65844727 C-3 3 -3 3 -1 3 C-0.67 2.01 -0.34 1.02 0 0 Z M1 9 C2.918125 9.185625 2.918125 9.185625 4.875 9.375 C8.75 9.75 8.75 9.75 11 12 C11.35479108 16.87837728 10.76010036 18.99895714 7.76953125 22.9375 C1.22332705 30.38833647 1.22332705 30.38833647 -2 32 C-2 32.66 -2 33.32 -2 34 C-2.639375 34.28875 -3.27875 34.5775 -3.9375 34.875 C-6.15206079 35.82823451 -6.15206079 35.82823451 -7 38 C-1.25190165 36.02922342 2.9617138 32.48698467 7 28 C7 27.34 7 26.68 7 26 C7.66 26 8.32 26 9 26 C9 25.34 9 24.68 9 24 C9.66 24 10.32 24 11 24 C14.77089394 19.49893296 17.69306887 14.98515697 18 9 C14.04675003 5.93941938 10.89665109 5.65081895 6.0859375 5.6015625 C3.53103964 6.0895767 2.63574238 7.0308579 1 9 Z M-2 7 C-6.95 8.485 -6.95 8.485 -12 10 C-7.44968209 11.13757948 -5.36915594 10.4283779 -1 9 C-1.33 8.34 -1.66 7.68 -2 7 Z M-7 14 C-6.67 14.99 -6.34 15.98 -6 17 C-5.34 17.33 -4.68 17.66 -4 18 C-3.87625 18.61875 -3.7525 19.2375 -3.625 19.875 C-2.80178529 22.67393003 -1.39815356 23.45280415 1 25 C4.79726648 21.60244578 6.88400359 19.02198383 8 14 C7.67 13.34 7.34 12.68 7 12 C6.01 12.33 5.02 12.66 4 13 C4.66 13.99 5.32 14.98 6 16 C4.35 16 2.7 16 1 16 C1.66 14.68 2.32 13.36 3 12 C-0.85645121 11.77963136 -3.49223216 12.39644899 -7 14 Z M-30 14 C-29.67 14.99 -29.34 15.98 -29 17 C-28.67 16.01 -28.34 15.02 -28 14 C-28.66 14 -29.32 14 -30 14 Z M-20 14 C-20 14.99 -20 15.98 -20 17 C-19.34 17 -18.68 17 -18 17 C-18 16.34 -18 15.68 -18 15 C-17.01 14.67 -16.02 14.34 -15 14 C-16.65 14 -18.3 14 -20 14 Z M-37 16 C-36.01 16.495 -36.01 16.495 -35 17 C-34.67 17.66 -34.34 18.32 -34 19 C-34 18.01 -34 17.02 -34 16 C-34.99 16 -35.98 16 -37 16 Z M-8 21 C-8 21.66 -8 22.32 -8 23 C-8.99 23.33 -9.98 23.66 -11 24 C-8.525 24.99 -8.525 24.99 -6 26 C-6.33 24.35 -6.66 22.7 -7 21 C-7.33 21 -7.66 21 -8 21 Z M-34 41 C-33 43 -33 43 -33 43 Z M-7 45 C-6 48 -6 48 -6 48 Z M-12 47 C-13.485 48.98 -13.485 48.98 -15 51 C-14.67 51.66 -14.34 52.32 -14 53 C-12.68 51.68 -11.36 50.36 -10 49 C-10.66 48.34 -11.32 47.68 -12 47 Z " fill="#D94694" transform="translate(183,214)"/>
<path d="M0 0 C-1.28965176 1.37562854 -2.62689293 2.70766393 -4 4 C-4.66 4 -5.32 4 -6 4 C-6.33 4.99 -6.66 5.98 -7 7 C-7.99 7.33 -8.98 7.66 -10 8 C-10 8.66 -10 9.32 -10 10 C-9.43796875 10.12375 -8.8759375 10.2475 -8.296875 10.375 C-5.82788789 11.04683323 -3.60655637 12.00468426 -1.25 13 C4.41881447 15.14785934 9.69337306 15.50709606 15.69238281 15.49609375 C17.69140625 15.53125 17.69140625 15.53125 21 16 C22.99063062 18.5055404 23 19.78117431 23 23 C13.56337194 25.13309529 5.09323481 22.45791614 -4 20 C5.70431966 24.09508525 15.67839368 25.11725258 26 23 C25.875 24.75 25.875 24.75 25 27 C15.13951469 35.5279873 1.71950031 36.14467837 -10.69726562 35.27929688 C-15.99654922 34.63655086 -20.41805035 32.63172108 -25 30 C-25.7321875 29.60425781 -26.464375 29.20851563 -27.21875 28.80078125 C-32.33874389 25.83709248 -36.66590305 21.9998182 -41 18 C-38.36517954 14.77234493 -35.35629294 13.84169363 -31.5 12.4375 C-24.08442131 9.65746856 -17.23029729 6.06938992 -10.34765625 2.16381836 C-9.19523437 1.52778687 -9.19523437 1.52778687 -8.01953125 0.87890625 C-7.33995361 0.4929126 -6.66037598 0.10691895 -5.96020508 -0.29077148 C-3.57635589 -1.15328013 -2.3537958 -0.8310414 0 0 Z M-19 11 C-15.22406041 15.28070998 -15.22406041 15.28070998 -10 17 C-12.77280706 13.91910327 -15.06326356 12.31224548 -19 11 Z M-10 17 C-9.67 17.66 -9.34 18.32 -9 19 C-8.01 18.67 -7.02 18.34 -6 18 C-7.32 17.67 -8.64 17.34 -10 17 Z " fill="#30366E" transform="translate(168,262)"/>
<path d="M0 0 C0.66 0.33 1.32 0.66 2 1 C2 1.66 2 2.32 2 3 C2.66 2.67 3.32 2.34 4 2 C9.85080968 1.45280197 15.13089477 1.34817107 20 5 C21.375 8.1875 21.375 8.1875 22 11 C22.66 11 23.32 11 24 11 C24 11.99 24 12.98 24 14 C23.34 14 22.68 14 22 14 C22 14.99 22 15.98 22 17 C20.71889593 18.3835924 19.36794747 19.70220368 18 21 C16.8863366 22.2625194 15.78311291 23.53428494 14.6875 24.8125 C12.30719929 27.57754759 9.84552837 30.12756084 7.1875 32.625 C4.22531897 35.52767292 2.99822625 37.91634718 2 42 C1.36184656 43.34721283 0.70674629 44.68747118 0 46 C-0.66 46 -1.32 46 -2 46 C-2.0928125 47.11375 -2.0928125 47.11375 -2.1875 48.25 C-3.25742693 51.87129113 -4.86885512 52.98712115 -8 55 C-8.99 55 -9.98 55 -11 55 C-11 55.66 -11 56.32 -11 57 C-6.71 57.33 -2.42 57.66 2 58 C2.33 59.65 2.66 61.3 3 63 C-6.66760317 63.60738868 -14.81640916 62.45572723 -23 57 C-22.34 55.35 -21.68 53.7 -21 52 C-20.01 52.33 -19.02 52.66 -18 53 C-17.855625 52.360625 -17.71125 51.72125 -17.5625 51.0625 C-17 49 -17 49 -16 48 C-16.66 47.34 -17.32 46.68 -18 46 C-15.93814793 42.9072219 -15.09630198 42.31923802 -11.875 40.8125 C-11.15054688 40.46832031 -10.42609375 40.12414062 -9.6796875 39.76953125 C-9.12539062 39.51558594 -8.57109375 39.26164062 -8 39 C-9.485 39.495 -9.485 39.495 -11 40 C-11 37 -11 37 -10 36 C-10.99 36 -11.98 36 -13 36 C-13.33 36.99 -13.66 37.98 -14 39 C-16.58072903 41.32265612 -17.45176068 42 -21 42 C-20 40 -20 40 -18 38 C-17.01 38 -16.02 38 -15 38 C-15 37.01 -15 36.02 -15 35 C-13.68 35 -12.36 35 -11 35 C-11 34.01 -11 33.02 -11 32 C-10.39671875 31.82984375 -9.7934375 31.6596875 -9.171875 31.484375 C-3.14342054 29.65639203 0.01481304 27.9014271 3.625 22.625 C5.38716147 19.26087356 7 15.84987673 7 12 C6.01 12.495 6.01 12.495 5 13 C5.33 13.99 5.66 14.98 6 16 C5.34 16 4.68 16 4 16 C3.67 16.66 3.34 17.32 3 18 C3 17.34 3 16.68 3 16 C2.34 16 1.68 16 1 16 C1.33 15.01 1.66 14.02 2 13 C0.5199159 13.11362262 -0.95910074 13.24122908 -2.4375 13.375 C-3.26121094 13.44460937 -4.08492187 13.51421875 -4.93359375 13.5859375 C-5.61550781 13.72257813 -6.29742187 13.85921875 -7 14 C-7.33 14.66 -7.66 15.32 -8 16 C-10.97 15.505 -10.97 15.505 -14 15 C-14 14.34 -14 13.68 -14 13 C-15.98 13 -17.96 13 -20 13 C-20 11.68 -20 10.36 -20 9 C-17.20964954 7.99619084 -14.41785145 6.9968055 -11.625 6 C-10.43390625 5.57074219 -10.43390625 5.57074219 -9.21875 5.1328125 C-8.07792969 4.72675781 -8.07792969 4.72675781 -6.9140625 4.3125 C-6.2123291 4.06113281 -5.5105957 3.80976563 -4.78759766 3.55078125 C-3 3 -3 3 -1 3 C-0.67 2.01 -0.34 1.02 0 0 Z M1 9 C2.918125 9.185625 2.918125 9.185625 4.875 9.375 C8.75 9.75 8.75 9.75 11 12 C11.35479108 16.87837728 10.76010036 18.99895714 7.76953125 22.9375 C1.22332705 30.38833647 1.22332705 30.38833647 -2 32 C-2 32.66 -2 33.32 -2 34 C-2.639375 34.28875 -3.27875 34.5775 -3.9375 34.875 C-6.15206079 35.82823451 -6.15206079 35.82823451 -7 38 C-1.25190165 36.02922342 2.9617138 32.48698467 7 28 C7 27.34 7 26.68 7 26 C7.66 26 8.32 26 9 26 C9 25.34 9 24.68 9 24 C9.66 24 10.32 24 11 24 C14.77089394 19.49893296 17.69306887 14.98515697 18 9 C14.04675003 5.93941938 10.89665109 5.65081895 6.0859375 5.6015625 C3.53103964 6.0895767 2.63574238 7.0308579 1 9 Z M-2 7 C-6.95 8.485 -6.95 8.485 -12 10 C-7.44968209 11.13757948 -5.36915594 10.4283779 -1 9 C-1.33 8.34 -1.66 7.68 -2 7 Z M-7 45 C-6 48 -6 48 -6 48 Z M-12 47 C-13.485 48.98 -13.485 48.98 -15 51 C-14.67 51.66 -14.34 52.32 -14 53 C-12.68 51.68 -11.36 50.36 -10 49 C-10.66 48.34 -11.32 47.68 -12 47 Z " fill="#71779B" transform="translate(183,214)"/>
<path d="M0 0 C2.31 0 4.62 0 7 0 C7 6.93 7 13.86 7 21 C11.29 21 15.58 21 20 21 C19.87625 19.453125 19.7525 17.90625 19.625 16.3125 C19.63834196 11.60946078 19.63834196 11.60946078 21.0546875 9.22265625 C23.86993117 6.59763175 26.45991276 5.70768216 30.1875 5.625 C34 6 34 6 37 7 C37 7.66 37 8.32 37 9 C37.66 9 38.32 9 39 9 C41.09350689 12.4019487 41.17942163 15.05272412 41 19 C40.01 19.33 39.02 19.66 38 20 C38.495 22.475 38.495 22.475 39 25 C33.87518188 27.61470312 30.77346314 28.633999 25 27 C22.5625 24.9375 22.5625 24.9375 21 23 C20.67 24.32 20.34 25.64 20 27 C13.4 27 6.8 27 0 27 C0 18.09 0 9.18 0 0 Z M28 12 C28 12.66 28 13.32 28 14 C27.01 14.495 27.01 14.495 26 15 C28.31 15 30.62 15 33 15 C33 14.01 33 13.02 33 12 C31.35 12 29.7 12 28 12 Z M28 19 C28 19.66 28 20.32 28 21 C29.83700789 21.77242269 29.83700789 21.77242269 32 22 C33.77190909 20.64555699 33.77190909 20.64555699 35 19 C32.69 19 30.38 19 28 19 Z " fill="#505182" transform="translate(215,235)"/>
<path d="M0 0 C-0.05220703 1.64935547 -0.05220703 1.64935547 -0.10546875 3.33203125 C-0.36308 14.87223043 0.14256071 24.69490177 7.01171875 34.44140625 C8 36 8 36 8 38 C8.66 38 9.32 38 10 38 C10 38.66 10 39.32 10 40 C10.66 40 11.32 40 12 40 C11.21869929 37.50447516 11.21869929 37.50447516 10 35 C8.515 34.505 8.515 34.505 7 34 C7 33.01 7 32.02 7 31 C6.34 31 5.68 31 5 31 C3.50178941 27.62902617 3 25.79557881 3 22 C3.66 22 4.32 22 5 22 C5.33 21.01 5.66 20.02 6 19 C6.33 19 6.66 19 7 19 C6.34 18.34 5.68 17.68 5 17 C4.62057612 14.04049371 4.54577821 12.59874691 6.375 10.1875 C8 9 8 9 10 9 C10.33 10.65 10.66 12.3 11 14 C9.68 14 8.36 14 7 14 C7.99 14.33 8.98 14.66 10 15 C10.33 15.66 10.66 16.32 11 17 C11.99 17.33 12.98 17.66 14 18 C16.26415094 23.20754717 16.26415094 23.20754717 15 27 C14.96125079 28.66621616 14.9549714 30.33394172 15 32 C15.66 32 16.32 32 17 32 C16.79375 30.88625 16.5875 29.7725 16.375 28.625 C16.25125 27.42875 16.1275 26.2325 16 25 C16.66 24.34 17.32 23.68 18 23 C18.66 23.33 19.32 23.66 20 24 C20 27.63 20 31.26 20 35 C20.66 35.33 21.32 35.66 22 36 C16 39 10 42 4 45 C3.34 44.34 2.68 43.68 2 43 C2 42.01 2 41.02 2 40 C1.04046328 38.31332528 1.04046328 38.31332528 -0.25 36.5625 C-6.3446367 27.17814462 -8.54381835 16.05763974 -8 5 C-6.34041193 0.3768618 -4.97486076 0 0 0 Z M11 32 C12 34 12 34 12 34 Z " fill="#AB62AD" transform="translate(138,223)"/>
<path d="M0 0 C0.99 0.33 1.98 0.66 3 1 C3 3.64 3 6.28 3 9 C4.32 9 5.64 9 7 9 C7 7.35 7 5.7 7 4 C11.14259293 1.9914701 14.43021527 1.83382601 19 2 C21.08466835 2 23.16949144 1.99735629 25.25390625 1.96484375 C26.39666016 1.95130859 26.39666016 1.95130859 27.5625 1.9375 C28.70912109 1.92009766 28.70912109 1.92009766 29.87890625 1.90234375 C32 2 32 2 35 3 C35 2.01 35 1.02 35 0 C35.99 0 36.98 0 38 0 C38.495 0.99 38.495 0.99 39 2 C39.7425 1.979375 40.485 1.95875 41.25 1.9375 C44 2 44 2 46.0625 2.5625 C48.37044704 3.08364933 49.73799496 2.58374324 52 2 C52.99 2.33 53.98 2.66 55 3 C54.34 6.3 53.68 9.6 53 13 C51.02 13 49.04 13 47 13 C46.505 12.01 46.505 12.01 46 11 C45.34 11 44.68 11 44 11 C43.505 8.525 43.505 8.525 43 6 C42.34 7.65 41.68 9.3 41 11 C38.03 11 35.06 11 32 11 C32 9.02 32 7.04 32 5 C31.34 5 30.68 5 30 5 C30 6.98 30 8.96 30 11 C29.01 11 28.02 11 27 11 C27 9.02 27 7.04 27 5 C26.34 5 25.68 5 25 5 C25.020625 5.804375 25.04125 6.60875 25.0625 7.4375 C25 10 25 10 24 11 C22.21928754 11.08726223 20.4351686 11.10699041 18.65234375 11.09765625 C17.57275391 11.09443359 16.49316406 11.09121094 15.38085938 11.08789062 C14.24455078 11.07951172 13.10824219 11.07113281 11.9375 11.0625 C10.79732422 11.05798828 9.65714844 11.05347656 8.48242188 11.04882812 C5.65492582 11.0369976 2.82745655 11.0190615 0 11 C0 7.37 0 3.74 0 0 Z " fill="#8A8C92" transform="translate(294,268)"/>
<path d="M0 0 C0.99 0 1.98 0 3 0 C3 2.64 3 5.28 3 8 C3.99 7.67 4.98 7.34 6 7 C6.33 4.69 6.66 2.38 7 0 C7.66 0 8.32 0 9 0 C9.33 0.66 9.66 1.32 10 2 C11.89533342 2.46523063 11.89533342 2.46523063 14.0625 2.625 C15.361875 2.74875 16.66125 2.8725 18 3 C18 2.01 18 1.02 18 0 C18.99 0 19.98 0 21 0 C21 0.99 21 1.98 21 3 C22.84725052 3.69159401 22.84725052 3.69159401 25 4 C25.99 3.34 26.98 2.68 28 2 C30.03390212 2.22598912 32.06846729 2.45817905 34.08984375 2.77734375 C36.0303363 3.11751755 36.0303363 3.11751755 38 2.5 C40.26937832 1.93265542 41.75723512 2.16529729 44.0625 2.5 C47.89527485 3.2755843 47.89527485 3.2755843 51 2 C51.99 2.33 52.98 2.66 54 3 C54.04241723 5.33294775 54.04092937 7.66702567 54 10 C53 11 53 11 50.27734375 11.09765625 C48.62412109 11.08025391 48.62412109 11.08025391 46.9375 11.0625 C45.28041016 11.04896484 45.28041016 11.04896484 43.58984375 11.03515625 C42.73519531 11.02355469 41.88054687 11.01195312 41 11 C40.34 9.68 39.68 8.36 39 7 C38.67 8.32 38.34 9.64 38 11 C33 11 28 11 23 11 C23 10.01 23 9.02 23 8 C22.34 8 21.68 8 21 8 C21 8.99 21 9.98 21 11 C19.02 11 17.04 11 15 11 C14.67 9.35 14.34 7.7 14 6 C13.67 7.65 13.34 9.3 13 11 C12.484375 10.814375 11.96875 10.62875 11.4375 10.4375 C8.80608024 9.82869936 8.80608024 9.82869936 5.375 10.5625 C3.704375 10.7790625 3.704375 10.7790625 2 11 C0 9 0 9 -0.1953125 6.8359375 C-0.17210937 6.02382813 -0.14890625 5.21171875 -0.125 4.375 C-0.10695313 3.55773437 -0.08890625 2.74046875 -0.0703125 1.8984375 C-0.04710937 1.27195312 -0.02390625 0.64546875 0 0 Z " fill="#929798" transform="translate(352,268)"/>
<path d="M0 0 C1.98 0 3.96 0 6 0 C8.31 5.28 10.62 10.56 13 16 C13.78375 14.288125 14.5675 12.57625 15.375 10.8125 C15.81585938 9.84957031 16.25671875 8.88664063 16.7109375 7.89453125 C17.87321851 5.28468208 18.95924781 2.66024041 20 0 C22.31 0 24.62 0 27 0 C26.17958319 3.91427779 24.67706248 7.55359341 23.1875 11.25 C22.92050293 11.91588135 22.65350586 12.5817627 22.37841797 13.26782227 C20.47022885 17.97174367 18.38071351 22.51327069 16 27 C14.02 27 12.04 27 10 27 C6.84742001 21.04512668 4.393378 14.97718959 2.05078125 8.66015625 C1.25048098 6.11785484 1.25048098 6.11785484 0 5 C-0.04063832 3.33382885 -0.042721 1.66611905 0 0 Z " fill="#9B579E" transform="translate(313,235)"/>
<path d="M0 0 C2.35796411 1.88637129 3.28741849 2.88610427 4.1875 5.75 C4.1875 7.73 4.1875 9.71 4.1875 11.75 C-2.2475 12.245 -2.2475 12.245 -8.8125 12.75 C-4.46305731 13.61988854 -2.84121475 13.78595522 1.1875 12.75 C1.8475 14.07 2.5075 15.39 3.1875 16.75 C-0.8436267 20.33428011 -4.02741419 20.24843562 -9.2421875 20.109375 C-11.8125 19.75 -11.8125 19.75 -14.4375 17.9375 C-16.99408562 13.8702047 -17.13816995 10.47221425 -16.8125 5.75 C-15.55794028 2.92724064 -14.52865278 1.28711459 -12.0625 -0.5625 C-7.74448763 -1.88189267 -4.12920682 -1.83520303 0 0 Z M-6.8125 3.75 C-8.1325 5.07 -9.4525 6.39 -10.8125 7.75 C-7.89597826 7.91681109 -7.89597826 7.91681109 -4.8125 7.75 C-4.1525 7.09 -3.4925 6.43 -2.8125 5.75 C-4.1325 5.09 -5.4525 4.43 -6.8125 3.75 Z " fill="#E14481" transform="translate(406.8125,242.25)"/>
<path d="M0 0 C3.5386994 1.65139305 4.81070153 2.71605229 7 6 C7.07905064 8.33199388 7.08798769 10.66832622 7 13 C6.01 13.33 5.02 13.66 4 14 C4.66 15.32 5.32 16.64 6 18 C4.23488988 20.22711881 3.31533596 20.94142366 0.4765625 21.46875 C-7.13720539 21.55218855 -7.13720539 21.55218855 -11.125 19 C-13.99938018 14.40099171 -14.548175 10.46678751 -13.375 5.1875 C-10.11067135 -0.00575012 -5.8246187 -0.62406629 0 0 Z M-7 7 C-7 7.66 -7 8.32 -7 9 C-4.36 9 -1.72 9 1 9 C0.67 8.01 0.34 7.02 0 6 C-3.37104174 4.53921524 -3.78149208 4.85432805 -7 7 Z M-7 13 C-6.01 13.99 -5.02 14.98 -4 16 C-1.3727086 15.92466753 -1.3727086 15.92466753 1 15 C1.33 14.34 1.66 13.68 2 13 C-0.97 13 -3.94 13 -7 13 Z " fill="#BB61AC" transform="translate(350,241)"/>
<path d="M0 0 C2.03120707 3.04681061 2.24659875 3.60118324 2.1953125 7.01171875 C2.18886719 7.76904297 2.18242187 8.52636719 2.17578125 9.30664062 C2.15902344 10.09232422 2.14226562 10.87800781 2.125 11.6875 C2.11597656 12.48478516 2.10695313 13.28207031 2.09765625 14.10351562 C2.07411585 16.069139 2.03824547 18.03460775 2 20 C-0.6058889 20.13494246 -3.20482111 20.23402299 -5.8125 20.3125 C-6.55048828 20.35439453 -7.28847656 20.39628906 -8.04882812 20.43945312 C-10.20703125 20.48828125 -10.20703125 20.48828125 -14 20 C-16.30104007 17.3057725 -17 15.91320034 -17 12.375 C-15.63178077 9.12547932 -14.19382205 8.41947647 -11 7 C-7.6875 6.3125 -7.6875 6.3125 -5 6 C-5.95712891 6.01740234 -5.95712891 6.01740234 -6.93359375 6.03515625 C-7.75988281 6.04417969 -8.58617187 6.05320313 -9.4375 6.0625 C-10.67306641 6.07990234 -10.67306641 6.07990234 -11.93359375 6.09765625 C-14 6 -14 6 -15 5 C-15.04063832 3.33382885 -15.042721 1.66611905 -15 0 C-10.1648862 -1.6117046 -4.80348505 -1.60116168 0 0 Z M-10 12 C-10 12.99 -10 13.98 -10 15 C-8.35 15 -6.7 15 -5 15 C-4.67 14.01 -4.34 13.02 -4 12 C-5.98 12 -7.96 12 -10 12 Z " fill="#2F316B" transform="translate(273,242)"/>
<path d="M0 0 C0.66 0.33 1.32 0.66 2 1 C0.8905928 4.48670834 -0.26337666 7.77484237 -2 11 C-2.66 11 -3.32 11 -4 11 C-4.0928125 12.11375 -4.0928125 12.11375 -4.1875 13.25 C-5.25742693 16.87129113 -6.86885512 17.98712115 -10 20 C-10.99 20 -11.98 20 -13 20 C-13 20.66 -13 21.32 -13 22 C-8.71 22.33 -4.42 22.66 0 23 C0.33 24.65 0.66 26.3 1 28 C-8.66760317 28.60738868 -16.81640916 27.45572723 -25 22 C-24.34 20.35 -23.68 18.7 -23 17 C-22.01 17.33 -21.02 17.66 -20 18 C-19.855625 17.360625 -19.71125 16.72125 -19.5625 16.0625 C-19 14 -19 14 -18 13 C-18.66 12.34 -19.32 11.68 -20 11 C-18 8 -18 8 -15.375 7.3125 C-14.59125 7.209375 -13.8075 7.10625 -13 7 C-13.99 8.485 -13.99 8.485 -15 10 C-9.93452822 8.70418164 -7.60125898 6.69602895 -4 3 C-1.6875 2.1875 -1.6875 2.1875 0 2 C0 1.34 0 0.68 0 0 Z M-9 10 C-8 13 -8 13 -8 13 Z M-14 12 C-15.485 13.98 -15.485 13.98 -17 16 C-16.67 16.66 -16.34 17.32 -16 18 C-14.68 16.68 -13.36 15.36 -12 14 C-12.66 13.34 -13.32 12.68 -14 12 Z " fill="#B74DA1" transform="translate(185,249)"/>
<path d="M0 0 C3.58875 -0.061875 3.58875 -0.061875 7.25 -0.125 C7.99668945 -0.14320801 8.74337891 -0.16141602 9.51269531 -0.18017578 C13.1584955 -0.21057379 16.00961528 -0.20614167 19 2 C21.45841665 7.77727912 21.46220954 13.78704381 21 20 C20.67 20.33 20.34 20.66 20 21 C18.02 21 16.04 21 14 21 C14 16.38 14 11.76 14 7 C12.35 7 10.7 7 9 7 C6.31907309 9.68092691 6.61329743 11.39167363 6.375 15.125 C6.30023438 16.22070312 6.22546875 17.31640625 6.1484375 18.4453125 C6.09945313 19.28835938 6.05046875 20.13140625 6 21 C4.02 21 2.04 21 0 21 C0 14.07 0 7.14 0 0 Z " fill="#6B6E95" transform="translate(293,241)"/>
<path d="M0 0 C0.495 0.33 0.99 0.66 1.5 1 C1.17 2.65 0.84 4.3 0.5 6 C-2.14 5.67 -4.78 5.34 -7.5 5 C-6.65115234 5.41572266 -6.65115234 5.41572266 -5.78515625 5.83984375 C-5.05167969 6.20207031 -4.31820313 6.56429687 -3.5625 6.9375 C-2.46615234 7.47697266 -2.46615234 7.47697266 -1.34765625 8.02734375 C0.5 9 0.5 9 1.5 10 C1.96698652 16.30431803 1.96698652 16.30431803 0.359375 18.69921875 C-2.28307935 20.54782652 -4.30303775 20.43358215 -7.5 20.4375 C-9.0778125 20.46650391 -9.0778125 20.46650391 -10.6875 20.49609375 C-13.5 20 -13.5 20 -15.375 17.97265625 C-15.74625 17.32167969 -16.1175 16.67070312 -16.5 16 C-15.51 14.515 -15.51 14.515 -14.5 13 C-10.045 13.99 -10.045 13.99 -5.5 15 C-6.38237303 12.66110011 -6.38237303 12.66110011 -9.4375 11.9375 C-10.448125 11.628125 -11.45875 11.31875 -12.5 11 C-13.16 10.67 -13.82 10.34 -14.5 10 C-14.98241206 2.64321608 -14.98241206 2.64321608 -13 0 C-8.64343006 -1.74262798 -4.35656994 -1.74262798 0 0 Z " fill="#D56B9A" transform="translate(387.5,242)"/>
<path d="M0 0 C2.31 0 4.62 0 7 0 C7 6.93 7 13.86 7 21 C11.62 20.67 16.24 20.34 21 20 C20.67 22.31 20.34 24.62 20 27 C13.4 27 6.8 27 0 27 C0 18.09 0 9.18 0 0 Z " fill="#6A6E96" transform="translate(215,235)"/>
<path d="M0 0 C0.66 0.33 1.32 0.66 2 1 C2 1.66 2 2.32 2 3 C2.84304687 3.185625 2.84304687 3.185625 3.703125 3.375 C6.17211211 4.04683323 8.39344363 5.00468426 10.75 6 C16.41881447 8.14785934 21.69337306 8.50709606 27.69238281 8.49609375 C29.69140625 8.53125 29.69140625 8.53125 33 9 C34.99063062 11.5055404 35 12.78117431 35 16 C23.47684523 18.54839 11.10652484 14.77215071 0.9296875 9.23828125 C-1.38225008 7.75470997 -3.26311304 6.131634 -5 4 C-4.34 4 -3.68 4 -3 4 C-2.67 3.01 -2.34 2.02 -2 1 C-1.34 0.67 -0.68 0.34 0 0 Z " fill="#E63783" transform="translate(156,269)"/>
<path d="M0 0 C0.33 1.65 0.66 3.3 1 5 C-0.32 5 -1.64 5 -3 5 C-2.01 5.33 -1.02 5.66 0 6 C0.33 6.66 0.66 7.32 1 8 C1.99 8.33 2.98 8.66 4 9 C6.26415094 14.20754717 6.26415094 14.20754717 5 18 C4.96125079 19.66621616 4.9549714 21.33394172 5 23 C5.66 23 6.32 23 7 23 C6.79375 21.88625 6.5875 20.7725 6.375 19.625 C6.189375 17.830625 6.189375 17.830625 6 16 C6.66 15.34 7.32 14.68 8 14 C8.66 14.33 9.32 14.66 10 15 C10 18.63 10 22.26 10 26 C10.66 26.33 11.32 26.66 12 27 C9.08517222 27.80967438 7.53886783 28.21845993 4.6875 27.0625 C3.8521875 26.5365625 3.8521875 26.5365625 3 26 C3 24.68 3 23.36 3 22 C2.01 22 1.02 22 0 22 C0 22.99 0 23.98 0 25 C-0.99 25 -1.98 25 -3 25 C-3 24.01 -3 23.02 -3 22 C-3.66 22 -4.32 22 -5 22 C-6.49821059 18.62902617 -7 16.79557881 -7 13 C-6.34 13 -5.68 13 -5 13 C-4.67 12.01 -4.34 11.02 -4 10 C-3.67 10 -3.34 10 -3 10 C-3.66 9.34 -4.32 8.68 -5 8 C-5.37942388 5.04049371 -5.45422179 3.59874691 -3.625 1.1875 C-2 0 -2 0 0 0 Z " fill="#B9519E" transform="translate(148,232)"/>
<path d="M0 0 C0.33 0.99 0.66 1.98 1 3 C1.99 3 2.98 3 4 3 C2.85111742 5.29776516 1.6862085 6.15788103 -0.3125 7.75 C-2.76289233 9.78864608 -4.62134121 11.6717083 -6.3125 14.375 C-6.869375 15.24125 -7.42625 16.1075 -8 17 C-8.66 17 -9.32 17 -10 17 C-10.33 20.3 -10.66 23.6 -11 27 C-4.19673922 30.40163039 5.93623343 27.53025504 13 26 C13 27.32 13 28.64 13 30 C4.28817184 32.51475452 -3.65909344 34.49920184 -12.5625 32 C-15.24421578 29.79961782 -15.43974995 29.32215584 -15.9375 26.0625 C-16.09520137 23.20810514 -16.01628844 20.71010251 -15 18 C-14.34 18 -13.68 18 -13 18 C-12.88527344 17.41734375 -12.77054687 16.8346875 -12.65234375 16.234375 C-11.95175938 13.83476865 -11.01807405 12.27139067 -9.5625 10.25 C-9.13066406 9.63640625 -8.69882813 9.0228125 -8.25390625 8.390625 C-7.84011719 7.93171875 -7.42632812 7.4728125 -7 7 C-6.34 7 -5.68 7 -5 7 C-4.731875 6.401875 -4.46375 5.80375 -4.1875 5.1875 C-3.01506533 3.02775192 -1.80630718 1.64209744 0 0 Z " fill="#484876" transform="translate(115,252)"/>
<path d="M0 0 C-0.85622071 8.21971884 -2.61938014 14.48162606 -9 20 C-9.11214844 19.37351563 -9.22429687 18.74703125 -9.33984375 18.1015625 C-9.97877358 15.45397093 -10.60835563 13.34947367 -12 11 C-14.94366533 9.60645631 -17.76734274 9.21008884 -21 9 C-19.39554854 5.62440082 -18.32102161 3.87339681 -15 2 C-10.01136367 0.47015153 -5.23133879 -0.26827378 0 0 Z " fill="#D25890" transform="translate(424,229)"/>
<path d="M0 0 C0.66 0.66 1.32 1.32 2 2 C1.8125 4.0625 1.8125 4.0625 1 6 C0.01 6.33 -0.98 6.66 -2 7 C-3.71226052 9.8201938 -4.8059395 12.92955871 -6 16 C-10.45673159 15.50128936 -12.57687178 13.97995638 -15.8125 10.9375 C-16.60269531 10.20402344 -17.39289063 9.47054688 -18.20703125 8.71484375 C-18.79871094 8.14894531 -19.39039062 7.58304687 -20 7 C-15.11478051 1.46447532 -7.20072459 -0.90009057 0 0 Z " fill="#2A3063" transform="translate(147,273)"/>
<path d="M0 0 C3.34252724 -0.07427838 5.8035914 -0.06546953 9 1 C9.556875 0.835 10.11375 0.67 10.6875 0.5 C13.10650413 -0.02302792 14.63471477 0.14428055 17.0625 0.5 C20.89527485 1.2755843 20.89527485 1.2755843 24 0 C24.99 0.33 25.98 0.66 27 1 C27.04241723 3.33294775 27.04092937 5.66702567 27 8 C26 9 26 9 23.27734375 9.09765625 C21.62412109 9.08025391 21.62412109 9.08025391 19.9375 9.0625 C18.83277344 9.05347656 17.72804688 9.04445313 16.58984375 9.03515625 C15.73519531 9.02355469 14.88054687 9.01195312 14 9 C13.34 7.68 12.68 6.36 12 5 C11.67 6.32 11.34 7.64 11 9 C4.375 8.25 4.375 8.25 1 6 C0.34 5.67 -0.32 5.34 -1 5 C-0.67 3.35 -0.34 1.7 0 0 Z " fill="#63666D" transform="translate(379,270)"/>
<path d="M0 0 C0.66 0 1.32 0 2 0 C2 1.32 2 2.64 2 4 C2.763125 3.62875 3.52625 3.2575 4.3125 2.875 C5.199375 2.58625 6.08625 2.2975 7 2 C7.99 2.66 8.98 3.32 10 4 C11.68577711 3.38325228 13.35448038 2.71727778 15 2 C15.66 2.33 16.32 2.66 17 3 C17.33 2.01 17.66 1.02 18 0 C18.99 0 19.98 0 21 0 C21.33 0.99 21.66 1.98 22 3 C22.99 3 23.98 3 25 3 C24.814375 3.5775 24.62875 4.155 24.4375 4.75 C23.95976454 7.20692525 24.24270636 8.64397534 25 11 C22.69 11 20.38 11 18 11 C18 9.35 18 7.7 18 6 C15.525 5.505 15.525 5.505 13 5 C13.99 6.485 13.99 6.485 15 8 C15.66 8 16.32 8 17 8 C17 8.99 17 9.98 17 11 C11.33333333 11 5.66666667 11 0 11 C0 7.37 0 3.74 0 0 Z M5 5 C5.33 6.32 5.66 7.64 6 9 C6.66 8.67 7.32 8.34 8 8 C7.67 7.01 7.34 6.02 7 5 C6.34 5 5.68 5 5 5 Z " fill="#898A8D" transform="translate(233,268)"/>
<path d="M0 0 C3.96 0 7.92 0 12 0 C12 1.98 12 3.96 12 6 C10.35 6.33 8.7 6.66 7 7 C6.67 11.62 6.34 16.24 6 21 C4.02 21 2.04 21 0 21 C0 14.07 0 7.14 0 0 Z " fill="#5C5E89" transform="translate(279,241)"/>
<path d="M0 0 C3.96 0 7.92 0 12 0 C12 1.98 12 3.96 12 6 C10.35 6.66 8.7 7.32 7 8 C6.67 12.29 6.34 16.58 6 21 C4.02 21 2.04 21 0 21 C0 14.07 0 7.14 0 0 Z " fill="#D36599" transform="translate(360,241)"/>
<path d="M0 0 C1.32 0.33 2.64 0.66 4 1 C3.34 1.33 2.68 1.66 2 2 C1.85949219 2.76441406 1.71898437 3.52882812 1.57421875 4.31640625 C0.91156009 7.41332122 -0.05527404 8.63582562 -2.1875 10.9375 C-2.81527344 11.61683594 -3.44304687 12.29617187 -4.08984375 12.99609375 C-4.72019531 13.65738281 -5.35054687 14.31867188 -6 15 C-6.55816406 15.60972656 -7.11632812 16.21945313 -7.69140625 16.84765625 C-9.06004024 18.29861409 -10.52411396 19.65828542 -12 21 C-12.99 21 -13.98 21 -15 21 C-15 21.66 -15 22.32 -15 23 C-16.65848177 24.01351664 -18.32665961 25.01120795 -20 26 C-20.680625 26.680625 -21.36125 27.36125 -22.0625 28.0625 C-23.99511238 29.99511238 -25.43248907 31.08894773 -28 32 C-28.99 31.67 -29.98 31.34 -31 31 C-26.46217403 26.1596523 -21.40199452 21.85310406 -16 18 C-15.34 18 -14.68 18 -14 18 C-13.34 16.68 -12.68 15.36 -12 14 C-11.34 14 -10.68 14 -10 14 C-10 13.34 -10 12.68 -10 12 C-9.34 12 -8.68 12 -8 12 C-8 11.34 -8 10.68 -8 10 C-7.34 10 -6.68 10 -6 10 C-5.7525 9.46375 -5.505 8.9275 -5.25 8.375 C-3.70303025 5.43575748 -1.86985631 2.74245592 0 0 Z " fill="#56568D" transform="translate(200,228)"/>
<path d="M0 0 C-0.99 0.99 -1.98 1.98 -3 3 C-2.34 3.66 -1.68 4.32 -1 5 C-2.65 5.33 -4.3 5.66 -6 6 C-6 7.65 -6 9.3 -6 11 C-6.33 9.68 -6.66 8.36 -7 7 C-8.98 9.31 -10.96 11.62 -13 14 C-12.2575 15.1446875 -12.2575 15.1446875 -11.5 16.3125 C-10 19 -10 19 -10 22 C-10.66 21.34 -11.32 20.68 -12 20 C-12.33 20.66 -12.66 21.32 -13 22 C-14.9375 21.3125 -14.9375 21.3125 -17 20 C-18.97446019 14.57023447 -18.57194847 7.50181965 -17 2 C-16.01 2 -15.02 2 -14 2 C-13.67 2.99 -13.34 3.98 -13 5 C-12.154375 4.175 -11.30875 3.35 -10.4375 2.5 C-7.03972892 -0.3787798 -4.43607134 -0.44360713 0 0 Z " fill="#C55FAA" transform="translate(156,223)"/>
<path d="M0 0 C0 9.24 0 18.48 0 28 C-0.99 28 -1.98 28 -3 28 C-3.33 26.68 -3.66 25.36 -4 24 C-4.66 24 -5.32 24 -6 24 C-9.21495327 8.38451268 -9.21495327 8.38451268 -7.125 2.5625 C-5.01660826 -0.36582186 -3.69018319 0 0 0 Z " fill="#ED3488" transform="translate(138,223)"/>
<path d="M0 0 C0.7425 0.37125 1.485 0.7425 2.25 1.125 C4.94283647 2.29515863 4.94283647 2.29515863 7.3125 1.125 C7.869375 0.75375 8.42625 0.3825 9 0 C9.33 0.66 9.66 1.32 10 2 C13.28414305 2.95067299 14.69693408 3.10102197 18 2 C18 3.98 18 5.96 18 8 C18.66 8 19.32 8 20 8 C20 6.35 20 4.7 20 3 C20.99 2.67 21.98 2.34 23 2 C23 4.97 23 7.94 23 11 C20 11 17 11 14 11 C12.7315625 11.061875 12.7315625 11.061875 11.4375 11.125 C9 11 9 11 7 9 C6.67 9.66 6.34 10.32 6 11 C5.01 11 4.02 11 3 11 C2.49384702 9.73160474 1.99530901 8.46016898 1.5 7.1875 C1.2215625 6.47980469 0.943125 5.77210938 0.65625 5.04296875 C0 3 0 3 0 0 Z M10 5 C10 5.99 10 6.98 10 8 C10.99 8 11.98 8 13 8 C12.67 7.01 12.34 6.02 12 5 C11.34 5 10.68 5 10 5 Z " fill="#9C9DA3" transform="translate(261,268)"/>
<path d="M0 0 C2.64 0 5.28 0 8 0 C8 0.66 8 1.32 8 2 C8.99 2.33 9.98 2.66 11 3 C11 4.32 11 5.64 11 7 C12.98 7.66 14.96 8.32 17 9 C12.81538462 14.78461538 12.81538462 14.78461538 8.6875 15.875 C7.3571875 15.936875 7.3571875 15.936875 6 16 C6 15.34 6 14.68 6 14 C4.68 14.33 3.36 14.66 2 15 C2 13 2 13 3.5 11.375 C3.995 10.92125 4.49 10.4675 5 10 C4.01 10 3.02 10 2 10 C1.67 10.66 1.34 11.32 1 12 C-1.44576827 8.33134759 -1.23607254 6.32799657 -1 2 C-0.67 1.34 -0.34 0.68 0 0 Z M6 6 C6 6.66 6 7.32 6 8 C5.01 8.33 4.02 8.66 3 9 C5.475 9.99 5.475 9.99 8 11 C7.67 9.35 7.34 7.7 7 6 C6.67 6 6.34 6 6 6 Z " fill="#CA6AA2" transform="translate(169,229)"/>
<path d="M0 0 C-1.28965176 1.37562854 -2.62689293 2.70766393 -4 4 C-4.66 4 -5.32 4 -6 4 C-6.33 4.99 -6.66 5.98 -7 7 C-9.32206525 7.70491267 -11.65593068 8.37212429 -14 9 C-14.33 9.66 -14.66 10.32 -15 11 C-15.99 11.33 -16.98 11.66 -18 12 C-17.38511719 12.40992188 -16.77023438 12.81984375 -16.13671875 13.2421875 C-12.7578125 15.49479167 -9.37890625 17.74739583 -6 20 C-8 22 -8 22 -10 23 C-10.66 22.67 -11.32 22.34 -12 22 C-12.33 22.66 -12.66 23.32 -13 24 C-16 20.25 -16 20.25 -16 18 C-16.66 17.67 -17.32 17.34 -18 17 C-18.433125 16.175 -18.86625 15.35 -19.3125 14.5 C-20.78060392 11.75762694 -20.78060392 11.75762694 -23.6875 11.1875 C-24.450625 11.125625 -25.21375 11.06375 -26 11 C-22.30542924 7.92441492 -18.16542886 5.97032572 -13.875 3.875 C-13.14667969 3.51535156 -12.41835937 3.15570313 -11.66796875 2.78515625 C-9.78025154 1.85351023 -7.89027614 0.92644303 -6 0 C-3.50907189 -1.24546405 -2.58919267 -0.7767578 0 0 Z " fill="#45497A" transform="translate(168,262)"/>
<path d="M0 0 C0.99 0.33 1.98 0.66 3 1 C3 3.64 3 6.28 3 9 C4.32 9 5.64 9 7 9 C7 7.35 7 5.7 7 4 C11.11418186 2.00524516 14.44755354 1.65641914 19 2 C21 4 21 4 21 11 C14.07 11 7.14 11 0 11 C0 7.37 0 3.74 0 0 Z " fill="#54585B" transform="translate(294,268)"/>
<path d="M0 0 C0.66 0.33 1.32 0.66 2 1 C2 1.66 2 2.32 2 3 C2.66 2.67 3.32 2.34 4 2 C9.85080968 1.45280197 15.13089477 1.34817107 20 5 C21.375 8.1875 21.375 8.1875 22 11 C22.66 11 23.32 11 24 11 C24 11.99 24 12.98 24 14 C23.34 14 22.68 14 22 14 C22 14.99 22 15.98 22 17 C21.01 17.33 20.02 17.66 19 18 C19.33 17.01 19.66 16.02 20 15 C19.01 14.67 18.02 14.34 17 14 C17 12.35 17 10.7 17 9 C12.66322198 6.52184113 8.89031632 6.54751522 4 7 C1.06919326 7.86653414 1.06919326 7.86653414 -1 9 C-1.103125 8.360625 -1.20625 7.72125 -1.3125 7.0625 C-1.539375 6.381875 -1.76625 5.70125 -2 5 C-2.99 4.67 -3.98 4.34 -5 4 C-4.0409375 3.8453125 -4.0409375 3.8453125 -3.0625 3.6875 C-2.381875 3.460625 -1.70125 3.23375 -1 3 C-0.67 2.01 -0.34 1.02 0 0 Z " fill="#7F70A5" transform="translate(183,214)"/>
<path d="M0 0 C2.31 0 4.62 0 7 0 C6.17755013 3.99040494 4.59422883 7.67980552 3.0625 11.4375 C2.79759766 12.09298828 2.53269531 12.74847656 2.25976562 13.42382812 C1.50817379 15.2832253 0.75414702 17.1416377 0 19 C-0.66779902 20.66621328 -1.33499535 22.33266949 -2 24 C-4 23 -4 23 -5.5 19.875 C-7.17419761 13.05326943 -2.792445 6.05818577 0 0 Z " fill="#AF68A7" transform="translate(333,235)"/>
<path d="M0 0 C0.33 0 0.66 0 1 0 C1.98248524 4.0527516 2.08159574 7.83861737 2 12 C2.66 12 3.32 12 4 12 C4.33 10.68 4.66 9.36 5 8 C9.62 8 14.24 8 19 8 C19 6.35 19 4.7 19 3 C19.33 3 19.66 3 20 3 C20 4.98 20 6.96 20 9 C13.565 9.495 13.565 9.495 7 10 C11.34944269 10.86988854 12.97128525 11.03595522 17 10 C17.66 11.32 18.32 12.64 19 14 C14.9688733 17.58428011 11.78508581 17.49843562 6.5703125 17.359375 C4 17 4 17 1.375 15.1875 C-1.18873513 11.10883047 -1.16866531 7.72262859 -1 3 C-0.67 2.01 -0.34 1.02 0 0 Z " fill="#DD749C" transform="translate(391,245)"/>
<path d="M0 0 C0.144375 0.598125 0.28875 1.19625 0.4375 1.8125 C0.8872439 3.56150404 1.42892341 5.28677023 2 7 C0.824375 7.5259375 0.824375 7.5259375 -0.375 8.0625 C-3.83547272 10.61665844 -4.14536744 12.88222494 -5 17 C-3.80375 16.79375 -2.6075 16.5875 -1.375 16.375 C2.5576018 15.86418162 5.3121243 16.43265283 9 18 C9 17.34 9 16.68 9 16 C9.66 16 10.32 16 11 16 C11 16.66 11 17.32 11 18 C11.66 18.33 12.32 18.66 13 19 C6.95665828 20.79061977 -1.0551837 22.97240815 -7 20 C-7 19.34 -7 18.68 -7 18 C-7.66 18 -8.32 18 -9 18 C-9.86000123 12.40999197 -7.67788096 9.44319278 -4.60546875 5.05078125 C-3.16976729 3.21685603 -1.68975471 1.59841662 0 0 Z " fill="#61638E" transform="translate(117,257)"/>
<path d="M0 0 C0.495 0.99 0.495 0.99 1 2 C0.34 2 -0.32 2 -1 2 C-1.04640625 3.10408203 -1.04640625 3.10408203 -1.09375 4.23046875 C-2.38472327 8.17572758 -5.04588543 9.39359574 -8.5 11.3125 C-9.15911377 11.69277344 -9.81822754 12.07304687 -10.49731445 12.46484375 C-29.0482006 22.96231205 -29.0482006 22.96231205 -38 25 C-38 24.34 -38 23.68 -38 23 C-37.01 23 -36.02 23 -35 23 C-35 22.34 -35 21.68 -35 21 C-32.08958541 19.05972361 -29.15238849 17.44920457 -26.0625 15.8125 C-21.49308632 13.35912353 -16.94363674 10.88110866 -12.4375 8.3125 C-11.48746094 7.77238281 -10.53742188 7.23226563 -9.55859375 6.67578125 C-7.01382063 5.00905198 -5.13712538 3.14616186 -3 1 C-2.01 0.67 -1.02 0.34 0 0 Z " fill="#4F457E" transform="translate(173,249)"/>
<path d="M0 0 C1.65 0 3.3 0 5 0 C5 5.61 5 11.22 5 17 C4.67 17 4.34 17 4 17 C3.95101562 16.07316406 3.90203125 15.14632812 3.8515625 14.19140625 C3.77679688 12.99386719 3.70203125 11.79632813 3.625 10.5625 C3.55539063 9.36753906 3.48578125 8.17257813 3.4140625 6.94140625 C3.27742187 5.97074219 3.14078125 5.00007812 3 4 C2.34 3.67 1.68 3.34 1 3 C1.33 8.28 1.66 13.56 2 19 C2.99 19 3.98 19 5 19 C5 19.99 5 20.98 5 22 C9.29 22 13.58 22 18 22 C18 23.32 18 24.64 18 26 C12.06 26 6.12 26 0 26 C0 17.42 0 8.84 0 0 Z " fill="#292B5C" transform="translate(216,235)"/>
<path d="M0 0 C0.99 0 1.98 0 3 0 C3.84098656 4.01804691 4.05404945 7.01803543 3 11 C1.02 11 -0.96 11 -3 11 C-3 9.02 -3 7.04 -3 5 C-3.66 5 -4.32 5 -5 5 C-5 6.98 -5 8.96 -5 11 C-5.99 11 -6.98 11 -8 11 C-8 9.02 -8 7.04 -8 5 C-8.66 5 -9.32 5 -10 5 C-10 6.65 -10 8.3 -10 10 C-11.32 10.33 -12.64 10.66 -14 11 C-14 8.69 -14 6.38 -14 4 C-10.35602463 1.66785576 -7.24674388 1.76835942 -3 2 C-2.01 2.33 -1.02 2.66 0 3 C0 2.01 0 1.02 0 0 Z " fill="#A5A9AD" transform="translate(329,268)"/>
<path d="M0 0 C0.33 0 0.66 0 1 0 C1 5.61 1 11.22 1 17 C-1.578125 17.103125 -4.15625 17.20625 -6.8125 17.3125 C-8.02450073 17.38078003 -8.02450073 17.38078003 -9.26098633 17.45043945 C-11.20703125 17.48828125 -11.20703125 17.48828125 -15 17 C-17.34302927 14.26646585 -18.0211669 12.91017665 -17.9375 9.3125 C-17 7 -17 7 -15.1875 5.5625 C-12.34915353 4.83263948 -11.54487843 5.68900202 -9 7 C-6.31006947 6.69621948 -6.31006947 6.69621948 -4 6 C-3.75 8.25 -3.75 8.25 -4 11 C-6 13.3125 -6 13.3125 -8 15 C-5.36 15.33 -2.72 15.66 0 16 C0 10.72 0 5.44 0 0 Z M-11 9 C-11 9.99 -11 10.98 -11 12 C-9.35 12 -7.7 12 -6 12 C-5.67 11.01 -5.34 10.02 -5 9 C-6.98 9 -8.96 9 -11 9 Z " fill="#60618B" transform="translate(274,245)"/>
<path d="M0 0 C0.66 0 1.32 0 2 0 C2 2.64 2 5.28 2 8 C3.32 8 4.64 8 6 8 C6 5.36 6 2.72 6 0 C7.36125 0.4640625 7.36125 0.4640625 8.75 0.9375 C10.58604031 1.53774395 12.43556191 2.10594749 14.3125 2.5625 C16 3 16 3 17 4 C17.04092937 6.33297433 17.04241723 8.66705225 17 11 C16.01 11 15.02 11 14 11 C13.67 9.35 13.34 7.7 13 6 C12.34 7.65 11.68 9.3 11 11 C10.34 11 9.68 11 9 11 C8.67 10.34 8.34 9.68 8 9 C7.67 9.66 7.34 10.32 7 11 C4.125 11.1875 4.125 11.1875 1 11 C-1.43769218 7.34346173 -1.23944439 5.30999899 -1 1 C-0.67 0.67 -0.34 0.34 0 0 Z " fill="#999A9E" transform="translate(215,268)"/>
<path d="M0 0 C0.33 1.65 0.66 3.3 1 5 C-0.32 5 -1.64 5 -3 5 C-2.01 5.33 -1.02 5.66 0 6 C0.33 6.66 0.66 7.32 1 8 C1.99 8.33 2.98 8.66 4 9 C5.8380113 13.04362487 6.25455926 15.73449853 5 20 C3.0625 19.6875 3.0625 19.6875 1 19 C0.67 18.01 0.34 17.02 0 16 C-1.98 16 -3.96 16 -6 16 C-6.33 15.01 -6.66 14.02 -7 13 C-6.34 13 -5.68 13 -5 13 C-4.67 12.01 -4.34 11.02 -4 10 C-3.67 10 -3.34 10 -3 10 C-3.66 9.34 -4.32 8.68 -5 8 C-5.37942388 5.04049371 -5.45422179 3.59874691 -3.625 1.1875 C-2 0 -2 0 0 0 Z " fill="#D44389" transform="translate(148,232)"/>
<path d="M0 0 C0.66 0.33 1.32 0.66 2 1 C0.8905928 4.48670834 -0.26337666 7.77484237 -2 11 C-2.66 11 -3.32 11 -4 11 C-4.061875 11.763125 -4.12375 12.52625 -4.1875 13.3125 C-5 16 -5 16 -7.4375 17.875 C-8.7059375 18.431875 -8.7059375 18.431875 -10 19 C-10.66 18.67 -11.32 18.34 -12 18 C-12 17.34 -12 16.68 -12 16 C-12.66 15.67 -13.32 15.34 -14 15 C-12.625 13.5 -12.625 13.5 -11 12 C-10.34 12 -9.68 12 -9 12 C-8.938125 11.278125 -8.87625 10.55625 -8.8125 9.8125 C-7.73807335 6.09333083 -5.94267006 4.45222505 -3 2 C-2.01 2 -1.02 2 0 2 C0 1.34 0 0.68 0 0 Z " fill="#CA72B9" transform="translate(185,249)"/>
<path d="M0 0 C0.33 0 0.66 0 1 0 C1 2.31 1 4.62 1 7 C0.01 7.33 -0.98 7.66 -2 8 C-1.34 9.32 -0.68 10.64 0 12 C-1.792665 14.28928166 -2.66918495 14.94918203 -5.59375 15.3984375 C-6.5528125 15.39070313 -7.511875 15.38296875 -8.5 15.375 C-9.4590625 15.38273437 -10.418125 15.39046875 -11.40625 15.3984375 C-14.33081505 14.94918203 -15.207335 14.28928166 -17 12 C-14.8125 9.9375 -14.8125 9.9375 -12 8 C-10.32345271 8.27942455 -8.65391846 8.60828247 -7 9 C-5.1645201 7.66621425 -5.1645201 7.66621425 -4 6 C-4.66 5.67 -5.32 5.34 -6 5 C-5.34 5 -4.68 5 -4 5 C-4 4.34 -4 3.68 -4 3 C-3.34 3 -2.68 3 -2 3 C-2 3.66 -2 4.32 -2 5 C-1.34 5.33 -0.68 5.66 0 6 C0 4.02 0 2.04 0 0 Z " fill="#BF7AAC" transform="translate(356,247)"/>
<path d="M0 0 C0 0.99 0 1.98 0 3 C-2.31 3.66 -4.62 4.32 -7 5 C-6.67 5.66 -6.34 6.32 -6 7 C-4.02 7 -2.04 7 0 7 C-0.66 7.66 -1.32 8.32 -2 9 C-2.99 9 -3.98 9 -5 9 C-5.33 9.66 -5.66 10.32 -6 11 C-8.97 10.505 -8.97 10.505 -12 10 C-12 9.34 -12 8.68 -12 8 C-13.98 8 -15.96 8 -18 8 C-18 6.68 -18 5.36 -18 4 C-6.66287016 -0.59225513 -6.66287016 -0.59225513 0 0 Z " fill="#A0639F" transform="translate(181,219)"/>
<path d="M0 0 C0.99 0.33 1.98 0.66 3 1 C2.67 1.99 2.34 2.98 2 4 C1.85596652 5.33363703 1.75409577 6.67218046 1.68359375 8.01171875 C1.64169922 8.76904297 1.59980469 9.52636719 1.55664062 10.30664062 C1.51732422 11.09232422 1.47800781 11.87800781 1.4375 12.6875 C1.39431641 13.48478516 1.35113281 14.28207031 1.30664062 15.10351562 C1.20072632 17.06881447 1.09987449 19.03438496 1 21 C-1.51083114 19.74458443 -1.87125446 18.49936512 -3 16 C-3.99 16 -4.98 16 -6 16 C-6.99009729 12.83624085 -7.19531687 11.43719935 -5.8203125 8.359375 C-5.26085937 7.49828125 -4.70140625 6.6371875 -4.125 5.75 C-3.57070312 4.87859375 -3.01640625 4.0071875 -2.4453125 3.109375 C-1 1 -1 1 0 0 Z " fill="#2D305F" transform="translate(128,220)"/>
<path d="M0 0 C0.66 0.33 1.32 0.66 2 1 C2 1.66 2 2.32 2 3 C2.85851562 3.19916016 2.85851562 3.19916016 3.734375 3.40234375 C5.97650875 3.99380317 8.08579619 4.73288854 10.25 5.5625 C10.95640625 5.83191406 11.6628125 6.10132813 12.390625 6.37890625 C12.92171875 6.58386719 13.4528125 6.78882813 14 7 C14 7.33 14 7.66 14 8 C12.35 8.33 10.7 8.66 9 9 C9 9.66 9 10.32 9 11 C10.32 11.33 11.64 11.66 13 12 C10.3864045 12.9861483 9.2405193 13.08441302 6.5625 12.14453125 C-1.98334966 7.70225269 -1.98334966 7.70225269 -5 4 C-4.34 4 -3.68 4 -3 4 C-2.67 3.01 -2.34 2.02 -2 1 C-1.34 0.67 -0.68 0.34 0 0 Z " fill="#AE509D" transform="translate(156,269)"/>
<path d="M0 0 C2.3431213 0.25561323 4.67843403 0.59270772 7 1 C8.4783226 3.95664519 8.06032783 6.74229737 8 10 C7.01 9.67 6.02 9.34 5 9 C5.33 8.34 5.66 7.68 6 7 C5.34 6.67 4.68 6.34 4 6 C4 5.34 4 4.68 4 4 C1.525 3.01 1.525 3.01 -1 2 C-0.67 1.34 -0.34 0.68 0 0 Z M-8 2 C-6.515 2.99 -6.515 2.99 -5 4 C-5 4.99 -5 5.98 -5 7 C-2.03 7 0.94 7 4 7 C4 7.66 4 8.32 4 9 C1.59454362 10.20272819 0.05003047 10.10071472 -2.625 10.0625 C-3.85089844 10.04896484 -3.85089844 10.04896484 -5.1015625 10.03515625 C-6.04128906 10.01775391 -6.04128906 10.01775391 -7 10 C-7 10.66 -7 11.32 -7 12 C-7.66 12 -8.32 12 -9 12 C-9.125 4.25 -9.125 4.25 -8 2 Z " fill="#B44D9A" transform="translate(348,243)"/>
<path d="M0 0 C2.125 1.75 2.125 1.75 3.0625 3.6875 C3.13934368 6.22334158 2.42745593 7.60477846 1.125 9.75 C0.795 8.1 0.465 6.45 0.125 4.75 C-0.535 4.75 -1.195 4.75 -1.875 4.75 C-2.205 6.07 -2.535 7.39 -2.875 8.75 C-3.535 8.09 -4.195 7.43 -4.875 6.75 C-4.545 6.42 -4.215 6.09 -3.875 5.75 C-6.76686786 4.41695302 -6.76686786 4.41695302 -9.0625 5.6875 C-9.660625 6.038125 -10.25875 6.38875 -10.875 6.75 C-11.535 5.43 -12.195 4.11 -12.875 2.75 C-11.225 2.42 -9.575 2.09 -7.875 1.75 C-9.32254255 0.30245745 -10.91462913 0.19266439 -12.875 -0.25 C-8.29392416 -1.77702528 -4.46890757 -1.94300329 0 0 Z " fill="#E36B9A" transform="translate(406.875,242.25)"/>
<path d="M0 0 C0.56460938 0.32871094 1.12921875 0.65742188 1.7109375 0.99609375 C4.25691506 2.11267435 5.86905346 2.17771516 8.625 2.0625 C12.80555556 1.90277778 12.80555556 1.90277778 15 3 C14.67 3.99 14.34 4.98 14 6 C12.22265625 6.765625 12.22265625 6.765625 10.0625 7.25 C9.35222656 7.42015625 8.64195312 7.5903125 7.91015625 7.765625 C6 8 6 8 4 7 C3.67 8.32 3.34 9.64 3 11 C2.01 11 1.02 11 0 11 C-1.16461426 7.50615721 -1.13568319 4.66344611 -1 1 C-0.67 0.67 -0.34 0.34 0 0 Z " fill="#282B6B" transform="translate(236,247)"/>
<path d="M0 0 C0.33 0.99 0.66 1.98 1 3 C1.66 3 2.32 3 3 3 C3 8.28 3 13.56 3 19 C2.34 19 1.68 19 1 19 C0.67 16.03 0.34 13.06 0 10 C-0.66 10 -1.32 10 -2 10 C-2 11.98 -2 13.96 -2 16 C-2.66 16 -3.32 16 -4 16 C-5.25 9.375 -5.25 9.375 -3 6 C-3.99 5.67 -4.98 5.34 -6 5 C-5.67 4.01 -5.34 3.02 -5 2 C-3.35 2 -1.7 2 0 2 C0 1.34 0 0.68 0 0 Z " fill="#EA80BC" transform="translate(157,239)"/>
<path d="M0 0 C1.32 0 2.64 0 4 0 C3.44271087 3.34373475 2.64826111 6.03312999 1 9 C1.66 9 2.32 9 3 9 C3 8.34 3 7.68 3 7 C3.66 7 4.32 7 5 7 C5 11.29 5 15.58 5 20 C3.35 20 1.7 20 0 20 C0 13.4 0 6.8 0 0 Z " fill="#333667" transform="translate(294,242)"/>
<path d="M0 0 C4.29 0 8.58 0 13 0 C15 4 15 4 15 7 C6.78079326 8.53994167 -0.0074348 7.2173731 -8 5 C-8 4.67 -8 4.34 -8 4 C-1.2314676 3.89847201 5.30324864 3.96973056 12 5 C12 4.01 12 3.02 12 2 C8.37 2.33 4.74 2.66 1 3 C0.67 2.01 0.34 1.02 0 0 Z " fill="#D95E8A" transform="translate(176,278)"/>
<path d="M0 0 C1.85952234 3.41613605 3.02840764 6.91757822 4.1875 10.625 C4.55230469 11.77226562 4.91710937 12.91953125 5.29296875 14.1015625 C6 17 6 17 5 19 C3.35 19 1.7 19 0 19 C-0.69937202 17.5682384 -1.38412718 16.12932968 -2.0625 14.6875 C-2.44535156 13.88699219 -2.82820312 13.08648437 -3.22265625 12.26171875 C-4 10 -4 10 -3 7 C-2.67 8.32 -2.34 9.64 -2 11 C-1.01 11 -0.02 11 1 11 C0.67 10.34 0.34 9.68 0 9 C-0.06950541 7.45976004 -0.08452357 5.91665012 -0.0625 4.375 C-0.05347656 3.55773437 -0.04445312 2.74046875 -0.03515625 1.8984375 C-0.02355469 1.27195313 -0.01195312 0.64546875 0 0 Z " fill="#B656A4" transform="translate(137,240)"/>
<path d="M0 0 C3.63 0.33 7.26 0.66 11 1 C11 1.66 11 2.32 11 3 C11.66 3 12.32 3 13 3 C13 4.32 13 5.64 13 7 C11.06372231 7.10807131 9.12572244 7.1856225 7.1875 7.25 C5.56908203 7.31960938 5.56908203 7.31960938 3.91796875 7.390625 C1 7 1 7 -0.88671875 4.984375 C-1.43779297 4.00210937 -1.43779297 4.00210937 -2 3 C-1.34 2.01 -0.68 1.02 0 0 Z " fill="#D1618F" transform="translate(373,255)"/>
<path d="M0 0 C2.1519437 3.22791555 2.20086443 4.28400809 2 8 C3.32 8 4.64 8 6 8 C6.33 7.34 6.66 6.68 7 6 C7.36116046 7.4774746 7.71375048 8.95704675 8.0625 10.4375 C8.25972656 11.26121094 8.45695312 12.08492188 8.66015625 12.93359375 C8.77230469 13.61550781 8.88445312 14.29742187 9 15 C8 16 8 16 4.9375 16.0625 C3.968125 16.041875 2.99875 16.02125 2 16 C0.25054234 12.92952329 -0.36795239 10.38478525 -0.6875 6.875 C-0.81705078 5.57175781 -0.81705078 5.57175781 -0.94921875 4.2421875 C-1 2 -1 2 0 0 Z " fill="#9E71A4" transform="translate(321,246)"/>
<path d="M0 0 C0.99 0 1.98 0 3 0 C3 2.64 3 5.28 3 8 C3.99 7.67 4.98 7.34 6 7 C6.33 4.69 6.66 2.38 7 0 C7.66 0 8.32 0 9 0 C9.33 0.66 9.66 1.32 10 2 C11.65 2 13.3 2 15 2 C13.68 2.33 12.36 2.66 11 3 C10.34 5.31 9.68 7.62 9 10 C5.625 10.625 5.625 10.625 2 11 C0 9 0 9 -0.1953125 6.8359375 C-0.17210937 6.02382813 -0.14890625 5.21171875 -0.125 4.375 C-0.10695313 3.55773437 -0.08890625 2.74046875 -0.0703125 1.8984375 C-0.04710937 1.27195312 -0.02390625 0.64546875 0 0 Z " fill="#9FA5A5" transform="translate(352,268)"/>
<path d="M0 0 C-0.33 5.61 -0.66 11.22 -1 17 C-1.33 17 -1.66 17 -2 17 C-3.10228696 12.59085217 -3.07654536 8.51617599 -3 4 C-3.99 4 -4.98 4 -6 4 C-5.67 10.6 -5.34 17.2 -5 24 C-8.07450647 17.85098705 -8.33263663 11.7636115 -8 5 C-6.34041193 0.3768618 -4.97486076 0 0 0 Z " fill="#D878A8" transform="translate(138,223)"/>
<path d="M0 0 C-0.75 2.4375 -0.75 2.4375 -2 5 C-4.125 5.8125 -4.125 5.8125 -6 6 C-6 6.66 -6 7.32 -6 8 C-9.62326739 9.2077558 -10.64146369 8.54311128 -14 7 C-11.07013018 -0.08051873 -7.02367934 -0.35118397 0 0 Z " fill="#383972" transform="translate(249,241)"/>
<path d="M0 0 C1.32 0 2.64 0 4 0 C4.66 1.65 5.32 3.3 6 5 C7.32 4.67 8.64 4.34 10 4 C9.67 4.99 9.34 5.98 9 7 C8.34 7 7.68 7 7 7 C7 7.66 7 8.32 7 9 C8.32 8.67 9.64 8.34 11 8 C10.67 8.99 10.34 9.98 10 11 C9.34 11 8.68 11 8 11 C8 11.99 8 12.98 8 14 C6.68 14 5.36 14 4 14 C3.67 12.35 3.34 10.7 3 9 C3.66 9 4.32 9 5 9 C3.18777466 6.9375006 3.18777466 6.9375006 1 5 C0.01 5 -0.98 5 -2 5 C-2 4.34 -2 3.68 -2 3 C-1.34 3 -0.68 3 0 3 C0 2.01 0 1.02 0 0 Z " fill="#D53F8A" transform="translate(164,235)"/>
<path d="M0 0 C-0.56820748 5.45479185 -1.94637945 9.91059256 -4 15 C-4.33 15 -4.66 15 -5 15 C-6 8.25 -6 8.25 -6 6 C-6.33 5.01 -6.66 4.02 -7 3 C-11.455 3.495 -11.455 3.495 -16 4 C-15 2 -15 2 -13.14453125 1.3671875 C-8.68502511 0.4259852 -4.58835504 -0.23530026 0 0 Z " fill="#B164AB" transform="translate(424,229)"/>
<path d="M0 0 C0.99 0.33 1.98 0.66 3 1 C3 3.64 3 6.28 3 9 C4.32 9 5.64 9 7 9 C7 7.35 7 5.7 7 4 C8.65 3.34 10.3 2.68 12 2 C12 2.99 12 3.98 12 5 C10.68 5.33 9.36 5.66 8 6 C8 7.32 8 8.64 8 10 C8.66 10 9.32 10 10 10 C10 9.34 10 8.68 10 8 C11.32 8.66 12.64 9.32 14 10 C14 10.33 14 10.66 14 11 C9.38 11 4.76 11 0 11 C0 7.37 0 3.74 0 0 Z " fill="#969799" transform="translate(294,268)"/>
<path d="M0 0 C0.33 0.99 0.66 1.98 1 3 C1.99 3 2.98 3 4 3 C2.85373303 5.29253394 1.65495735 6.24879328 -0.3125 7.875 C-3.0084099 10.138233 -5.55759705 12.45990093 -8 15 C-8 14.34 -8 13.68 -8 13 C-8.66 13 -9.32 13 -10 13 C-10 13.66 -10 14.32 -10 15 C-10.66 14.67 -11.32 14.34 -12 14 C-11.21654285 12.82780457 -10.42297164 11.66236332 -9.625 10.5 C-9.18414062 9.8503125 -8.74328125 9.200625 -8.2890625 8.53125 C-7.86367187 8.0259375 -7.43828125 7.520625 -7 7 C-6.34 7 -5.68 7 -5 7 C-4.731875 6.401875 -4.46375 5.80375 -4.1875 5.1875 C-3.01506533 3.02775192 -1.80630718 1.64209744 0 0 Z " fill="#53517E" transform="translate(115,252)"/>
<path d="M0 0 C0.52078125 0.23589844 1.0415625 0.47179687 1.578125 0.71484375 C0.28847324 2.09047229 -1.04876793 3.42250768 -2.421875 4.71484375 C-3.081875 4.71484375 -3.741875 4.71484375 -4.421875 4.71484375 C-4.751875 5.70484375 -5.081875 6.69484375 -5.421875 7.71484375 C-7.74394025 8.41975642 -10.07780568 9.08696804 -12.421875 9.71484375 C-12.751875 10.37484375 -13.081875 11.03484375 -13.421875 11.71484375 C-14.741875 11.38484375 -16.061875 11.05484375 -17.421875 10.71484375 C-16.431875 10.05484375 -15.441875 9.39484375 -14.421875 8.71484375 C-14.751875 8.05484375 -15.081875 7.39484375 -15.421875 6.71484375 C-13.34614419 5.51199974 -11.26304405 4.32778674 -9.171875 3.15234375 C-8.58535156 2.81009766 -7.99882812 2.46785156 -7.39453125 2.11523438 C-2.96392641 -0.34897843 -2.96392641 -0.34897843 0 0 Z " fill="#584882" transform="translate(166.421875,261.28515625)"/>
<path d="M0 0 C4.29 0.33 8.58 0.66 13 1 C13.33 2.65 13.66 4.3 14 6 C12.06280622 6.05406122 10.12518079 6.09282025 8.1875 6.125 C7.10855469 6.14820313 6.02960938 6.17140625 4.91796875 6.1953125 C2 6 2 6 -1 4 C-0.01 3.67 0.98 3.34 2 3 C1.34 2.67 0.68 2.34 0 2 C0 1.34 0 0.68 0 0 Z " fill="#D65B9B" transform="translate(172,271)"/>
<path d="M0 0 C1.32 0 2.64 0 4 0 C4 1.32 4 2.64 4 4 C3.34 4 2.68 4 2 4 C2 5.32 2 6.64 2 8 C2.66 8 3.32 8 4 8 C4 11.63 4 15.26 4 19 C2.68 19 1.36 19 0 19 C0 12.73 0 6.46 0 0 Z " fill="#2B2D62" transform="translate(280,242)"/>
<path d="M0 0 C0.33 0.99 0.66 1.98 1 3 C0.01 3.495 0.01 3.495 -1 4 C-1 3.01 -1 2.02 -1 1 C-1.99 1.33 -2.98 1.66 -4 2 C-4 1.34 -4 0.68 -4 0 C-4.99 0 -5.98 0 -7 0 C-6.34 1.32 -5.68 2.64 -5 4 C-11.28571429 6.42857143 -11.28571429 6.42857143 -15 5 C-15 3.35 -15 1.7 -15 0 C-10.1648862 -1.6117046 -4.80348505 -1.60116168 0 0 Z " fill="#525481" transform="translate(273,242)"/>
<path d="M0 0 C6.75 0.75 6.75 0.75 9 3 C9.125 6.625 9.125 6.625 9 10 C8.01 10 7.02 10 6 10 C5.67 8.35 5.34 6.7 5 5 C4.34 6.65 3.68 8.3 3 10 C2.34 10 1.68 10 1 10 C-0.1577506 6.52674819 -0.06866652 3.63932552 0 0 Z " fill="#9D9FA0" transform="translate(223,269)"/>
<path d="M0 0 C-0.125 1.75 -0.125 1.75 -1 4 C-4.41611332 6.63972393 -7.84707219 8.76534579 -12 10 C-12.99 9.67 -13.98 9.34 -15 9 C-13.35 8.34 -11.7 7.68 -10 7 C-10 5.68 -10 4.36 -10 3 C-11.65 3 -13.3 3 -15 3 C-15 2.67 -15 2.34 -15 2 C-12.87528825 1.6648342 -10.75022095 1.33192171 -8.625 1 C-7.44164062 0.814375 -6.25828125 0.62875 -5.0390625 0.4375 C-2 0 -2 0 0 0 Z " fill="#68688D" transform="translate(194,285)"/>
<path d="M0 0 C3.13462598 0.10968305 5.39930415 0.5370361 8.0625 2.3125 C7.7325 3.9625 7.4025 5.6125 7.0625 7.3125 C4.4225 6.9825 1.7825 6.6525 -0.9375 6.3125 C0.0525 7.3025 1.0425 8.2925 2.0625 9.3125 C0.4125 9.3125 -1.2375 9.3125 -2.9375 9.3125 C-2.9375 7.6625 -2.9375 6.0125 -2.9375 4.3125 C0.0325 4.3125 3.0025 4.3125 6.0625 4.3125 C6.0625 3.6525 6.0625 2.9925 6.0625 2.3125 C-0.3725 2.8075 -0.3725 2.8075 -6.9375 3.3125 C-3.9375 0.3125 -3.9375 0.3125 0 0 Z " fill="#DA80A9" transform="translate(380.9375,240.6875)"/>
<path d="M0 0 C1.6415049 3.2830098 0.51888624 6.42545033 0 10 C0.66 10 1.32 10 2 10 C2 9.34 2 8.68 2 8 C5.63 8 9.26 8 13 8 C13 8.33 13 8.66 13 9 C10.03 9 7.06 9 4 9 C3.67 10.32 3.34 11.64 3 13 C1.68 13.33 0.36 13.66 -1 14 C-3.48895013 9.3149174 -3.00976752 6.0488376 -2 1 C-1.34 0.67 -0.68 0.34 0 0 Z " fill="#AC64A3" transform="translate(339,245)"/>
<path d="M0 0 C0.33 0.66 0.66 1.32 1 2 C0 4 0 4 -2.3125 5.375 C-5.04588042 6.8814145 -5.04588042 6.8814145 -7.0625 9.0625 C-8.99511238 10.99511238 -10.43248907 12.08894773 -13 13 C-13.99 12.67 -14.98 12.34 -16 12 C-11.35292803 7.07128731 -6.25667159 2.7529355 0 0 Z " fill="#4A427B" transform="translate(185,247)"/>
<path d="M0 0 C2.475 0.495 2.475 0.495 5 1 C5.93619813 4.15506142 6.1057123 6.96586502 6.0625 10.25 C6.05347656 11.14203125 6.04445313 12.0340625 6.03515625 12.953125 C6.02355469 13.62859375 6.01195312 14.3040625 6 15 C4.68 15 3.36 15 2 15 C1.90912109 13.62714844 1.90912109 13.62714844 1.81640625 12.2265625 C1.69072266 10.44378906 1.69072266 10.44378906 1.5625 8.625 C1.48128906 7.44164062 1.40007812 6.25828125 1.31640625 5.0390625 C1.18915064 2.08481099 1.18915064 2.08481099 0 0 Z " fill="#2A2E68" transform="translate(306,246)"/>
<path d="M0 0 C0.99 0.33 1.98 0.66 3 1 C3 4.63 3 8.26 3 12 C3.66 12.33 4.32 12.66 5 13 C2.08517222 13.80967438 0.53886783 14.21845993 -2.3125 13.0625 C-2.869375 12.711875 -3.42625 12.36125 -4 12 C-4 11.01 -4 10.02 -4 9 C-2.68 9 -1.36 9 0 9 C-0.185625 7.88625 -0.37125 6.7725 -0.5625 5.625 C-1 2 -1 2 0 0 Z " fill="#A73E91" transform="translate(155,246)"/>
<path d="M0 0 C1.98 0.99 3.96 1.98 6 3 C6.33 2.34 6.66 1.68 7 1 C8.32 1.66 9.64 2.32 11 3 C10.67 5.31 10.34 7.62 10 10 C8.0625 9.6875 8.0625 9.6875 6 9 C5.67 8.01 5.34 7.02 5 6 C3.02 6 1.04 6 -1 6 C-1.33 5.01 -1.66 4.02 -2 3 C-1.34 3 -0.68 3 0 3 C0 2.01 0 1.02 0 0 Z " fill="#C6398B" transform="translate(143,242)"/>
<path d="M0 0 C0.7425 0.37125 1.485 0.7425 2.25 1.125 C4.94283647 2.29515863 4.94283647 2.29515863 7.3125 1.125 C7.869375 0.75375 8.42625 0.3825 9 0 C8.67 1.98 8.34 3.96 8 6 C7.34 6 6.68 6 6 6 C6 7.65 6 9.3 6 11 C5.01 11 4.02 11 3 11 C2.49384702 9.73160474 1.99530901 8.46016898 1.5 7.1875 C1.2215625 6.47980469 0.943125 5.77210938 0.65625 5.04296875 C0 3 0 3 0 0 Z " fill="#959799" transform="translate(261,268)"/>
<path d="M0 0 C2.475 0.99 2.475 0.99 5 2 C4.01 2.33 3.02 2.66 2 3 C2 3.66 2 4.32 2 5 C4.97 5.33 7.94 5.66 11 6 C11 6.66 11 7.32 11 8 C5.51319471 9.30638221 1.98697992 8.49348996 -3 6 C-2.67 4.68 -2.34 3.36 -2 2 C-1.34 2 -0.68 2 0 2 C0 1.34 0 0.68 0 0 Z " fill="#5A5C88" transform="translate(240,254)"/>
<path d="M0 0 C2 1 2 1 5 3 C5 3.66 5 4.32 5 5 C5.66 5.33 6.32 5.66 7 6 C6.67 6.99 6.34 7.98 6 9 C6 9.99 6 10.98 6 12 C5.67 11.34 5.34 10.68 5 10 C4.01 10 3.02 10 2 10 C1.67 10.66 1.34 11.32 1 12 C-1.44576827 8.33134759 -1.23607254 6.32799657 -1 2 C-0.67 1.34 -0.34 0.68 0 0 Z " fill="#E07BB4" transform="translate(169,229)"/>
<path d="M0 0 C-0.33 1.32 -0.66 2.64 -1 4 C-0.34 4.33 0.32 4.66 1 5 C-0.98 6.32 -2.96 7.64 -5 9 C-5 6 -5 6 -4 5 C-4.99 5 -5.98 5 -7 5 C-7.33 5.99 -7.66 6.98 -8 8 C-10.58072903 10.32265612 -11.45176068 11 -15 11 C-14 9 -14 9 -12 7 C-11.01 7 -10.02 7 -9 7 C-9 6.01 -9 5.02 -9 4 C-7.68 4 -6.36 4 -5 4 C-5 3.01 -5 2.02 -5 1 C-3 0 -3 0 0 0 Z " fill="#B0559C" transform="translate(177,245)"/>
<path d="M0 0 C2.31 0 4.62 0 7 0 C6.30058404 3.14737182 5.23921302 6.02588876 4 9 C2.02 8.34 0.04 7.68 -2 7 C-1.34 4.69 -0.68 2.38 0 0 Z " fill="#B46CA7" transform="translate(333,235)"/>
<path d="M0 0 C1.67293936 0.30027117 3.33985384 0.63557767 5 1 C5.99 0.67 6.98 0.34 8 0 C7.67 1.65 7.34 3.3 7 5 C6.34 5 5.68 5 5 5 C5 4.34 5 3.68 5 3 C3.01508358 3.26676204 3.01508358 3.26676204 1 4 C0.67 4.99 0.34 5.98 0 7 C1.32 7 2.64 7 4 7 C4 7.66 4 8.32 4 9 C1.625 9.125 1.625 9.125 -1 9 C-1.66 8.34 -2.32 7.68 -3 7 C-2.67028521 3.70285207 -2.3773161 2.3773161 0 0 Z " fill="#898A8C" transform="translate(271,270)"/>
<path d="M0 0 C4.75 0.75 4.75 0.75 7 3 C7 4.32 7 5.64 7 7 C3.70303895 8.09898702 2.59505097 7.87124444 -0.6875 7.0625 C-1.49574219 6.86785156 -2.30398437 6.67320312 -3.13671875 6.47265625 C-3.75160156 6.31667969 -4.36648437 6.16070312 -5 6 C-5 5.34 -5 4.68 -5 4 C-2.69 3.34 -0.38 2.68 2 2 C1.34 1.34 0.68 0.68 0 0 Z " fill="#52547A" transform="translate(247,253)"/>
<path d="M0 0 C2.375 -0.125 2.375 -0.125 5 0 C5.66 0.66 6.32 1.32 7 2 C6.8125 4.0625 6.8125 4.0625 6 6 C5.01 6.33 4.02 6.66 3 7 C1.83333333 8.91666667 1.83333333 8.91666667 1 11 C0.67 11.66 0.34 12.32 0 13 C-1.125 10.75 -1.125 10.75 -2 8 C-1.125 5.875 -1.125 5.875 0 4 C0 3.01 0 2.02 0 1 C0 0.67 0 0.34 0 0 Z " fill="#21265E" transform="translate(142,273)"/>
<path d="M0 0 C1.07765625 0.00902344 2.1553125 0.01804688 3.265625 0.02734375 C4.08546875 0.03894531 4.9053125 0.05054688 5.75 0.0625 C4.75 3.0625 4.75 3.0625 3.75 4.0625 C3.75 4.7225 3.75 5.3825 3.75 6.0625 C3.09 6.0625 2.43 6.0625 1.75 6.0625 C1.42 6.7225 1.09 7.3825 0.75 8.0625 C0.75 7.4025 0.75 6.7425 0.75 6.0625 C0.09 6.0625 -0.57 6.0625 -1.25 6.0625 C-0.92 5.0725 -0.59 4.0825 -0.25 3.0625 C-4.21 3.0625 -8.17 3.0625 -12.25 3.0625 C-8.68685008 -0.50064992 -4.85839412 -0.05280863 0 0 Z " fill="#5B4F7D" transform="translate(185.25,223.9375)"/>
<path d="M0 0 C0.66 0.33 1.32 0.66 2 1 C2 1.66 2 2.32 2 3 C2.66 3 3.32 3 4 3 C4 3.66 4 4.32 4 5 C6.97 5 9.94 5 13 5 C13 5.33 13 5.66 13 6 C12.11248047 6.07347656 12.11248047 6.07347656 11.20703125 6.1484375 C6.80895528 6.56456867 3.03071103 7.04965595 -1 9 C-1.103125 8.360625 -1.20625 7.72125 -1.3125 7.0625 C-1.539375 6.381875 -1.76625 5.70125 -2 5 C-2.99 4.67 -3.98 4.34 -5 4 C-4.0409375 3.8453125 -4.0409375 3.8453125 -3.0625 3.6875 C-2.381875 3.460625 -1.70125 3.23375 -1 3 C-0.67 2.01 -0.34 1.02 0 0 Z " fill="#BF73A6" transform="translate(183,214)"/>
<path d="M0 0 C0.67578125 1.796875 0.67578125 1.796875 1 4 C-0.14453125 5.703125 -0.14453125 5.703125 -1.8125 7.25 C-2.35519531 7.77078125 -2.89789063 8.2915625 -3.45703125 8.828125 C-5 10 -5 10 -7 10 C-7 10.66 -7 11.32 -7 12 C-8.65 12.33 -10.3 12.66 -12 13 C-11.875 11.25 -11.875 11.25 -11 9 C-9.04690112 7.59886384 -7.04291182 6.26660533 -5 5 C-4.13375 4.13375 -4.13375 4.13375 -3.25 3.25 C-2.8375 2.8375 -2.425 2.425 -2 2 C-1.34 2 -0.68 2 0 2 C0 1.34 0 0.68 0 0 Z " fill="#493D78" transform="translate(188,236)"/>
<path d="M0 0 C2.97 0.99 5.94 1.98 9 3 C9 3.33 9 3.66 9 4 C7.35 4.33 5.7 4.66 4 5 C4 5.66 4 6.32 4 7 C5.32 7.33 6.64 7.66 8 8 C5.5332355 8.88336837 4.36140628 9.1312406 1.859375 8.22265625 C1.16328125 7.83980469 0.4671875 7.45695312 -0.25 7.0625 C-0.95640625 6.68222656 -1.6628125 6.30195313 -2.390625 5.91015625 C-2.92171875 5.60980469 -3.4528125 5.30945313 -4 5 C-3.01 4.67 -2.02 4.34 -1 4 C-0.67 2.68 -0.34 1.36 0 0 Z " fill="#C75FA3" transform="translate(161,273)"/>
<path d="M0 0 C0.99 0 1.98 0 3 0 C3.84098656 4.01804691 4.05404945 7.01803543 3 11 C1.02 11 -0.96 11 -3 11 C-3.1875 8.125 -3.1875 8.125 -3 5 C-2.01 4.34 -1.02 3.68 0 3 C0 2.01 0 1.02 0 0 Z " fill="#9B9BA0" transform="translate(329,268)"/>
<path d="M0 0 C0.99 0.33 1.98 0.66 3 1 C2.34 4.3 1.68 7.6 1 11 C-0.98 11 -2.96 11 -5 11 C-4.25 6.25 -4.25 6.25 -2 4 C-1.30251417 2.68252676 -0.63040043 1.35085807 0 0 Z " fill="#73767A" transform="translate(346,270)"/>
<path d="M0 0 C0 -0.66 0 -1.32 0 -2 C0.66 -2 1.32 -2 2 -2 C2 -1.34 2 -0.68 2 0 C2.66 0.33 3.32 0.66 4 1 C-2.09339169 2.88341198 -6.72532201 3.0748291 -13 2 C-12 0 -12 0 -10.4375 -1.25 C-6.61659063 -2.42566442 -3.78819491 -1.13645847 0 0 Z " fill="#4D517C" transform="translate(126,275)"/>
<path d="M0 0 C0.66 0.33 1.32 0.66 2 1 C1.34 1.66 0.68 2.32 0 3 C1.65 2.67 3.3 2.34 5 2 C5.33 2.99 5.66 3.98 6 5 C4.8553125 5.12375 4.8553125 5.12375 3.6875 5.25 C0.42905571 6.15933329 -0.09946505 7.32197349 -2 10 C-2.99 10 -3.98 10 -5 10 C-4.34 8.68 -3.68 7.36 -3 6 C-3.66 5.34 -4.32 4.68 -5 4 C-3 1 -3 1 0 0 Z " fill="#8666A5" transform="translate(170,256)"/>
<path d="M0 0 C-1.375 1.5 -1.375 1.5 -3 3 C-3.66 3 -4.32 3 -5 3 C-4.67 3.99 -4.34 4.98 -4 6 C-4.99 6.99 -5.98 7.98 -7 9 C-8.65 7.35 -10.3 5.7 -12 4 C-3.13924051 -1.56962025 -3.13924051 -1.56962025 0 0 Z " fill="#393C72" transform="translate(139,275)"/>
<path d="M0 0 C0 0.99 0 1.98 0 3 C-2.08047297 3.5321441 -4.16452293 4.05031786 -6.25 4.5625 C-7.41015625 4.85253906 -8.5703125 5.14257812 -9.765625 5.44140625 C-12.72090983 5.95179964 -14.24434101 6.02996165 -17 5 C-11.18524285 1.72408048 -6.75479274 -0.7342166 0 0 Z " fill="#645E8B" transform="translate(181,219)"/>
<path d="M0 0 C1.32 0.66 2.64 1.32 4 2 C4 3.32 4 4.64 4 6 C3.34 6.66 2.68 7.32 2 8 C1.01 8 0.02 8 -1 8 C-1 7.34 -1 6.68 -1 6 C-1.66 6 -2.32 6 -3 6 C-2.42655063 3.13275314 -2.1385485 2.1385485 0 0 Z " fill="#DB92B7" transform="translate(126,285)"/>
<path d="M0 0 C0 0.99 0 1.98 0 3 C-4.1196377 4.29243536 -7.66831683 5.26252625 -12 5 C-12.33 4.01 -12.66 3.02 -13 2 C-11.21089097 1.47044766 -9.41860852 0.9516063 -7.625 0.4375 C-6.62726563 0.14746094 -5.62953125 -0.14257812 -4.6015625 -0.44140625 C-2 -1 -2 -1 0 0 Z " fill="#5F5D84" transform="translate(128,279)"/>
<path d="M0 0 C1.9375 0.75 1.9375 0.75 4 2 C4.75 4.125 4.75 4.125 5 6 C3.35 6.66 1.7 7.32 0 8 C0 7.34 0 6.68 0 6 C-1.32 5.67 -2.64 5.34 -4 5 C-4 4.34 -4 3.68 -4 3 C-2.68 2.67 -1.36 2.34 0 2 C0 1.34 0 0.68 0 0 Z " fill="#D37AA7" transform="translate(108,248)"/>
<path d="M0 0 C2 2 2 2 2.125 5.125 C2.08375 6.07375 2.0425 7.0225 2 8 C1.01 8.33 0.02 8.66 -1 9 C-1.66 9.66 -2.32 10.32 -3 11 C-5.125 5.375 -5.125 5.375 -4 2 C-2.02 2.495 -2.02 2.495 0 3 C0 2.01 0 1.02 0 0 Z " fill="#E055A6" transform="translate(166,244)"/>
<path d="M0 0 C0.94875 0.350625 1.8975 0.70125 2.875 1.0625 C2.545 2.7125 2.215 4.3625 1.875 6.0625 C0.555 6.3925 -0.765 6.7225 -2.125 7.0625 C-2.455 5.4125 -2.785 3.7625 -3.125 2.0625 C-4.775 2.0625 -6.425 2.0625 -8.125 2.0625 C-3.46982759 -1.04094828 -3.46982759 -1.04094828 0 0 Z " fill="#BF348C" transform="translate(158.125,224.9375)"/>
<path d="M0 0 C1.60379341 -0.05416188 3.20811406 -0.09286638 4.8125 -0.125 C5.70582031 -0.14820313 6.59914062 -0.17140625 7.51953125 -0.1953125 C10 0 10 0 13 2 C12.01 2.495 12.01 2.495 11 3 C11 3.66 11 4.32 11 5 C8.69 5 6.38 5 4 5 C3.71125 4.360625 3.4225 3.72125 3.125 3.0625 C2.17176549 0.84793921 2.17176549 0.84793921 0 0 Z " fill="#D13689" transform="translate(163,277)"/>
<path d="M0 0 C0.66 0 1.32 0 2 0 C2.268125 0.61875 2.53625 1.2375 2.8125 1.875 C3.95556848 4.2995233 3.95556848 4.2995233 7 6 C7 6.99 7 7.98 7 9 C4.69 9 2.38 9 0 9 C-0.66 6.69 -1.32 4.38 -2 2 C-1.34 2 -0.68 2 0 2 C0 1.34 0 0.68 0 0 Z " fill="#7B7C7E" transform="translate(251,270)"/>
<path d="M0 0 C1.485 0.99 1.485 0.99 3 2 C3 2.99 3 3.98 3 5 C4.32 5.33 5.64 5.66 7 6 C6.67 6.66 6.34 7.32 6 8 C4.35 8 2.7 8 1 8 C1 8.66 1 9.32 1 10 C0.34 10 -0.32 10 -1 10 C-1.125 2.25 -1.125 2.25 0 0 Z " fill="#A64498" transform="translate(340,245)"/>
<path d="M0 0 C-0.99 0.33 -1.98 0.66 -3 1 C-3 1.66 -3 2.32 -3 3 C-6.3 3 -9.6 3 -13 3 C-13.33 2.01 -13.66 1.02 -14 0 C-8.97703996 -1.13016601 -5.02125926 -0.77916092 0 0 Z " fill="#424673" transform="translate(119,282)"/>
<path d="M0 0 C1.50433594 0.01353516 1.50433594 0.01353516 3.0390625 0.02734375 C3.80992187 0.03894531 4.58078125 0.05054688 5.375 0.0625 C5.375 0.7225 5.375 1.3825 5.375 2.0625 C4.76011719 2.07667969 4.14523437 2.09085938 3.51171875 2.10546875 C1.04006369 2.25132399 -1.22205567 2.45642878 -3.625 3.0625 C-5.68954002 5.46993101 -5.68954002 5.46993101 -6.625 8.0625 C-6.955 8.0625 -7.285 8.0625 -7.625 8.0625 C-7.625 5.7525 -7.625 3.4425 -7.625 1.0625 C-4.98041621 -0.25979189 -2.94738699 -0.03427194 0 0 Z " fill="#DA4183" transform="translate(381.625,242.9375)"/>
<path d="M0 0 C1.67542976 0.28604898 3.34385343 0.61781233 5 1 C5.04241723 3.33294775 5.04092937 5.66702567 5 8 C4 9 4 9 1.4375 9.0625 C0.633125 9.041875 -0.17125 9.02125 -1 9 C-0.7525 8.0409375 -0.7525 8.0409375 -0.5 7.0625 C0.22012926 4.0919668 0.06307211 4.18921634 -1 1 C-0.67 0.67 -0.34 0.34 0 0 Z " fill="#76797A" transform="translate(401,270)"/>
<path d="M0 0 C2.125 0.9375 2.125 0.9375 4 2 C4 4.31 4 6.62 4 9 C2.02 9 0.04 9 -2 9 C-2 8.01 -2 7.02 -2 6 C-0.68 6 0.64 6 2 6 C2 5.34 2 4.68 2 4 C0.68 3.67 -0.64 3.34 -2 3 C-2 2.34 -2 1.68 -2 1 C-1.34 0.67 -0.68 0.34 0 0 Z " fill="#6B6F71" transform="translate(311,270)"/>
<path d="M0 0 C1.98 0.66 3.96 1.32 6 2 C5.01 2.33 4.02 2.66 3 3 C3 3.99 3 4.98 3 6 C5.31 6 7.62 6 10 6 C10 6.33 10 6.66 10 7 C8.22992286 7.08114106 6.45877902 7.13925505 4.6875 7.1875 C3.70136719 7.22230469 2.71523438 7.25710938 1.69921875 7.29296875 C-1 7 -1 7 -2.85546875 5.48828125 C-3.23316406 4.99714844 -3.61085938 4.50601562 -4 4 C-2.68 2.68 -1.36 1.36 0 0 Z " fill="#B87BB4" transform="translate(343,255)"/>
<path d="M0 0 C0.66 1.32 1.32 2.64 2 4 C2.66 4 3.32 4 4 4 C3.34 5.65 2.68 7.3 2 9 C-1 9 -1 9 -2.6875 7.625 C-4 6 -4 6 -4 4 C-2.70766393 2.62689293 -1.37562854 1.28965176 0 0 Z " fill="#BD7AB2" transform="translate(196,244)"/>
<path d="M0 0 C0.66 0.33 1.32 0.66 2 1 C1.67 4.96 1.34 8.92 1 13 C-0.32 12.67 -1.64 12.34 -3 12 C-3 10.02 -3 8.04 -3 6 C-2.34 6 -1.68 6 -1 6 C-1.0309375 4.7934375 -1.0309375 4.7934375 -1.0625 3.5625 C-1 1 -1 1 0 0 Z " fill="#BB4B80" transform="translate(364,248)"/>
<path d="M0 0 C-1.485 1.485 -1.485 1.485 -3 3 C-2.34 3.66 -1.68 4.32 -1 5 C-2.65 5.33 -4.3 5.66 -6 6 C-6 7.65 -6 9.3 -6 11 C-7.61949011 8.42786866 -8.04408751 7.32330841 -7.625 4.25 C-7.41875 3.5075 -7.2125 2.765 -7 2 C-7.66 1.67 -8.32 1.34 -9 1 C-6.04335481 -0.4783226 -3.25770263 -0.06032783 0 0 Z " fill="#E3A0DC" transform="translate(156,223)"/>
<path d="M0 0 C2.475 0.99 2.475 0.99 5 2 C4 4 3 6 2 8 C-1 7 -1 7 -2.1875 4.9375 C-2.5896875 3.9784375 -2.5896875 3.9784375 -3 3 C-2.01 2.01 -1.02 1.02 0 0 Z " fill="#A771B4" transform="translate(155,207)"/>
<path d="M0 0 C0.66 0 1.32 0 2 0 C3.625 2.5 3.625 2.5 5 5 C4.01 5.99 3.02 6.98 2 8 C0.68 7.34 -0.64 6.68 -2 6 C-2 2 -2 2 0 0 Z " fill="#B46FA7" transform="translate(93,272)"/>
<path d="M0 0 C0.33 3.63 0.66 7.26 1 11 C0.01 11 -0.98 11 -2 11 C-3.83832664 7.89782379 -4.47446226 5.60591321 -4 2 C-1 0 -1 0 0 0 Z " fill="#C83E92" transform="translate(137,240)"/>
<path d="M0 0 C1.19625 0.12375 2.3925 0.2475 3.625 0.375 C5.5625 2.875 5.5625 2.875 6.625 5.375 C4.975 5.045 3.325 4.715 1.625 4.375 C1.295 5.035 0.965 5.695 0.625 6.375 C-1.025 4.725 -2.675 3.075 -4.375 1.375 C-3.375 0.375 -3.375 0.375 0 0 Z " fill="#BF3D8F" transform="translate(413.375,231.625)"/>
<path d="M0 0 C0.33 1.32 0.66 2.64 1 4 C1.515625 4.12375 2.03125 4.2475 2.5625 4.375 C5.72702351 5.18641628 8.86124985 6.0945913 12 7 C12 7.33 12 7.66 12 8 C10.02 8 8.04 8 6 8 C6 8.66 6 9.32 6 10 C3.525 9.01 3.525 9.01 1 8 C0.67 5.36 0.34 2.72 0 0 Z " fill="#676990" transform="translate(99,274)"/>
<path d="M0 0 C0.598125 0.226875 1.19625 0.45375 1.8125 0.6875 C1.4825 2.0075 1.1525 3.3275 0.8125 4.6875 C0.8125 4.0275 0.8125 3.3675 0.8125 2.6875 C-0.1775 2.6875 -1.1675 2.6875 -2.1875 2.6875 C-2.1875 4.6675 -2.1875 6.6475 -2.1875 8.6875 C-3.1775 8.6875 -4.1675 8.6875 -5.1875 8.6875 C-5.55003776 3.24943353 -5.55003776 3.24943353 -3.9375 0.75 C-2.1875 -0.3125 -2.1875 -0.3125 0 0 Z " fill="#898C8F" transform="translate(326.1875,270.3125)"/>
<path d="M0 0 C0.33 0 0.66 0 1 0 C1.33 1.98 1.66 3.96 2 6 C2.66 4.35 3.32 2.7 4 1 C4.66 1.33 5.32 1.66 6 2 C5.39009109 5.55780196 4.4216319 8.6828589 3 12 C1 11 1 11 0.33203125 9.2578125 C0.16058594 8.55398437 -0.01085937 7.85015625 -0.1875 7.125 C-0.36667969 6.42632812 -0.54585938 5.72765625 -0.73046875 5.0078125 C-1 3 -1 3 0 0 Z " fill="#B57FB4" transform="translate(328,247)"/>
<path d="M0 0 C1.77429146 3.35304876 2.59593314 6.20177155 3 10 C2.67 10.99 2.34 11.98 2 13 C1.01 13 0.02 13 -1 13 C-1.33 13.66 -1.66 14.32 -2 15 C-4.125 10.375 -4.125 10.375 -3 7 C-2.67 8.32 -2.34 9.64 -2 11 C-1.01 11 -0.02 11 1 11 C0.67 10.34 0.34 9.68 0 9 C-0.06950541 7.45976004 -0.08452357 5.91665012 -0.0625 4.375 C-0.05347656 3.55773437 -0.04445312 2.74046875 -0.03515625 1.8984375 C-0.02355469 1.27195313 -0.01195312 0.64546875 0 0 Z " fill="#C366AE" transform="translate(137,240)"/>
<path d="M0 0 C1.65 0.33 3.3 0.66 5 1 C1.484375 5.6875 1.484375 5.6875 0 7 C-4 7 -4 7 -6 6 C-5.38125 5.7525 -4.7625 5.505 -4.125 5.25 C-1.64931313 3.79371361 -1.04874998 2.62187494 0 0 Z " fill="#6E729B" transform="translate(188,242)"/>
<path d="M0 0 C3.3 0 6.6 0 10 0 C10.33 1.32 10.66 2.64 11 4 C7.37 3.67 3.74 3.34 0 3 C0 2.01 0 1.02 0 0 Z " fill="#555282" transform="translate(187,216)"/>
<path d="M0 0 C6.93 0.495 6.93 0.495 14 1 C14 1.66 14 2.32 14 3 C8.72 3 3.44 3 -2 3 C-1.34 2.67 -0.68 2.34 0 2 C0 1.34 0 0.68 0 0 Z " fill="#2B306F" transform="translate(219,257)"/>
<path d="M0 0 C2.74792483 3.40219265 6 7.48464588 6 12 C4 13.625 4 13.625 2 15 C1.66223316 13.2508503 1.32996329 11.50063855 1 9.75 C0.814375 8.77546875 0.62875 7.8009375 0.4375 6.796875 C0 4 0 4 0 0 Z " fill="#AB72B3" transform="translate(321,242)"/>
<path d="M0 0 C0.33 0 0.66 0 1 0 C1.33 1.98 1.66 3.96 2 6 C2.99 4.68 3.98 3.36 5 2 C5 3.32 5 4.64 5 6 C5.66 6.33 6.32 6.66 7 7 C7 7.66 7 8.32 7 9 C7.66 9.33 8.32 9.66 9 10 C3.375 10.25 3.375 10.25 0 8 C-0.40843923 5.28796348 -0.13336867 2.7562858 0 0 Z " fill="#D26B9B" transform="translate(373,244)"/>
<path d="M0 0 C1.98 0 3.96 0 6 0 C6 0.66 6 1.32 6 2 C6.66 2 7.32 2 8 2 C8 3.65 8 5.3 8 7 C5.525 6.01 5.525 6.01 3 5 C3 4.34 3 3.68 3 3 C2.01 2.67 1.02 2.34 0 2 C0 1.34 0 0.68 0 0 Z " fill="#CD5499" transform="translate(171,229)"/>
<path d="M0 0 C2.0625 0.4375 2.0625 0.4375 4 1 C4 1.66 4 2.32 4 3 C3.34 3 2.68 3 2 3 C2 4.98 2 6.96 2 9 C1.01 9 0.02 9 -1 9 C-1.09765625 2.84765625 -1.09765625 2.84765625 -1 1 C-0.67 0.67 -0.34 0.34 0 0 Z " fill="#A4A8A9" transform="translate(286,270)"/>
<path d="M0 0 C0.66 0.66 1.32 1.32 2 2 C1.625 5.625 1.625 5.625 1 9 C-0.32 8.67 -1.64 8.34 -3 8 C-3 6.35 -3 4.7 -3 3 C-2.01 2.67 -1.02 2.34 0 2 C0 1.34 0 0.68 0 0 Z " fill="#90429C" transform="translate(327,252)"/>
<path d="M0 0 C0.33 0.66 0.66 1.32 1 2 C0.34 2 -0.32 2 -1 2 C-1.061875 2.78375 -1.12375 3.5675 -1.1875 4.375 C-1.455625 5.24125 -1.72375 6.1075 -2 7 C-4.5625 8.3125 -4.5625 8.3125 -7 9 C-6.5047783 5.33535945 -5.9791794 3.29167646 -3 1 C-2.01 0.67 -1.02 0.34 0 0 Z " fill="#413576" transform="translate(173,249)"/>
<path d="M0 0 C0.99 0 1.98 0 3 0 C2.67 1.98 2.34 3.96 2 6 C0.68 6 -0.64 6 -2 6 C-2 5.34 -2 4.68 -2 4 C-3.32 4.33 -4.64 4.66 -6 5 C-6 4.34 -6 3.68 -6 3 C-5.195625 2.690625 -4.39125 2.38125 -3.5625 2.0625 C-1.10919595 1.23664655 -1.10919595 1.23664655 0 0 Z " fill="#DF89C0" transform="translate(177,239)"/>
<path d="M0 0 C1.38232443 1.62626404 2.71937515 3.2925002 4 5 C3.67 5.66 3.34 6.32 3 7 C2.34 6.34 1.68 5.68 1 5 C0.67 5.66 0.34 6.32 0 7 C-1.32 6.34 -2.64 5.68 -4 5 C-4 3.68 -4 2.36 -4 1 C-2 0 -2 0 0 0 Z " fill="#E393C8" transform="translate(143,238)"/>
<path d="M0 0 C0 0.99 0 1.98 0 3 C1.98 3 3.96 3 6 3 C5.67 3.66 5.34 4.32 5 5 C3.35 4.67 1.7 4.34 0 4 C0 4.99 0 5.98 0 7 C0.66 7 1.32 7 2 7 C2.33 6.34 2.66 5.68 3 5 C3 5.99 3 6.98 3 8 C1.35 8 -0.3 8 -2 8 C-2 6.02 -2 4.04 -2 2 C-2.99 1.67 -3.98 1.34 -5 1 C-2 0 -2 0 0 0 Z " fill="#E28CC5" transform="translate(163,224)"/>
<path d="M0 0 C1.65 0.33 3.3 0.66 5 1 C5 1.66 5 2.32 5 3 C4.34 3 3.68 3 3 3 C2.67 4.65 2.34 6.3 2 8 C1.01 8 0.02 8 -1 8 C-1.33 6.02 -1.66 4.04 -2 2 C-1.34 2 -0.68 2 0 2 C0 1.34 0 0.68 0 0 Z " fill="#6D7375" transform="translate(363,271)"/>
<path d="M0 0 C1.37562854 1.28965176 2.70766393 2.62689293 4 4 C4 4.66 4 5.32 4 6 C4.66 6 5.32 6 6 6 C5 8 5 8 3 9 C2.67 8.01 2.34 7.02 2 6 C1.34 5.67 0.68 5.34 0 5 C-0.33 5.99 -0.66 6.98 -1 8 C-1.99 7.01 -2.98 6.02 -4 5 C-3.34 4.54625 -2.68 4.0925 -2 3.625 C-1.34 3.08875 -0.68 2.5525 0 2 C0 1.34 0 0.68 0 0 Z " fill="#C375B3" transform="translate(142,255)"/>
<path d="M0 0 C0.99 0 1.98 0 3 0 C3.36923077 4.55384615 3.36923077 4.55384615 1.5 6.8125 C1.005 7.204375 0.51 7.59625 0 8 C0 7.34 0 6.68 0 6 C-0.66 6 -1.32 6 -2 6 C-2 6.99 -2 7.98 -2 9 C-2.66 9 -3.32 9 -4 9 C-3.3543999 5.51375944 -2.07639763 2.87501211 0 0 Z " fill="#DF5C9D" transform="translate(166,229)"/>
<path d="M0 0 C0.99 0 1.98 0 3 0 C2.67 1.98 2.34 3.96 2 6 C-0.97 5.505 -0.97 5.505 -4 5 C-3.67 4.01 -3.34 3.02 -3 2 C-2.34 2.33 -1.68 2.66 -1 3 C-0.67 2.01 -0.34 1.02 0 0 Z " fill="#212A60" transform="translate(124,266)"/>
<path d="M0 0 C0.33 0.99 0.66 1.98 1 3 C1.99 3 2.98 3 4 3 C2.62308038 5.75383923 0.63279958 6.51483101 -2 8 C-2.33 7.34 -2.66 6.68 -3 6 C-3.66 5.67 -4.32 5.34 -5 5 C-3.35 3.35 -1.7 1.7 0 0 Z " fill="#8C8BA8" transform="translate(115,252)"/>
<path d="M0 0 C0.66 0.33 1.32 0.66 2 1 C0.25 6.75 0.25 6.75 -2 9 C-2.66 8.01 -3.32 7.02 -4 6 C-4.66 5.67 -5.32 5.34 -6 5 C-4.6875 3.5 -4.6875 3.5 -3 2 C-2.01 2 -1.02 2 0 2 C0 1.34 0 0.68 0 0 Z " fill="#BA68A6" transform="translate(185,249)"/>
<path d="M0 0 C0.33 0.99 0.66 1.98 1 3 C-2.78187881 4.83691257 -4.94568308 5.15837626 -9 4 C-8.34 3.01 -7.68 2.02 -7 1 C-3.375 0.3125 -3.375 0.3125 0 0 Z " fill="#464476" transform="translate(269,248)"/>
<path d="M0 0 C2.475 0.495 2.475 0.495 5 1 C4.01 1.495 4.01 1.495 3 2 C3 2.66 3 3.32 3 4 C3.66 4 4.32 4 5 4 C5 5.65 5 7.3 5 9 C4.01 8.67 3.02 8.34 2 8 C0.5522078 5.10441559 0 3.25811062 0 0 Z " fill="#E064A5" transform="translate(151,230)"/>
<path d="M0 0 C2.31 0.33 4.62 0.66 7 1 C7 2.32 7 3.64 7 5 C5.35 5.66 3.7 6.32 2 7 C2 5.68 2 4.36 2 3 C1.34 2.67 0.68 2.34 0 2 C0 1.34 0 0.68 0 0 Z " fill="#2A2F69" transform="translate(177,287)"/>
<path d="M0 0 C0.33 0.66 0.66 1.32 1 2 C3.02463255 2.65213292 3.02463255 2.65213292 5 3 C4.01 3 3.02 3 2 3 C2 3.99 2 4.98 2 6 C-0.64 6.33 -3.28 6.66 -6 7 C-5.67 6.01 -5.34 5.02 -5 4 C-3.35 4 -1.7 4 0 4 C0 2.68 0 1.36 0 0 Z " fill="#565A5D" transform="translate(399,272)"/>
<path d="M0 0 C0.66 0.33 1.32 0.66 2 1 C2 2.65 2 4.3 2 6 C1.34 6 0.68 6 0 6 C-0.33 6.99 -0.66 7.98 -1 9 C-1.33 7.35 -1.66 5.7 -2 4 C-2.99 4.33 -3.98 4.66 -5 5 C-4 2 -4 2 -2.0625 0.75 C-1.381875 0.5025 -0.70125 0.255 0 0 Z " fill="#CE74B9" transform="translate(181,254)"/>
<path d="M0 0 C0.99 0.33 1.98 0.66 3 1 C2.67 1.99 2.34 2.98 2 4 C1.77439324 6.39254576 1.59151405 8.78928123 1.4375 11.1875 C1.35371094 12.45980469 1.26992187 13.73210937 1.18359375 15.04296875 C1.12300781 16.01878906 1.06242188 16.99460938 1 18 C0.67 18 0.34 18 0 18 C-0.16798051 15.72926348 -0.33434113 13.45840707 -0.5 11.1875 C-0.5928125 9.92292969 -0.685625 8.65835938 -0.78125 7.35546875 C-0.91914781 5.24021483 -1 3.11974408 -1 1 C-0.67 0.67 -0.34 0.34 0 0 Z " fill="#9797AC" transform="translate(128,220)"/>
<path d="M0 0 C4.29 0 8.58 0 13 0 C12.67 0.99 12.34 1.98 12 3 C8.37 3 4.74 3 1 3 C0.67 2.01 0.34 1.02 0 0 Z " fill="#DE76A6" transform="translate(176,278)"/>
<path d="M0 0 C0.99 0.33 1.98 0.66 3 1 C3.33 1.99 3.66 2.98 4 4 C3.34 4 2.68 4 2 4 C2 4.66 2 5.32 2 6 C1.01 6.33 0.02 6.66 -1 7 C-1.66 5.68 -2.32 4.36 -3 3 C-2.01 2.01 -1.02 1.02 0 0 Z " fill="#2F3669" transform="translate(140,273)"/>
<path d="M0 0 C0.886875 0.185625 1.77375 0.37125 2.6875 0.5625 C5.85178811 0.98042484 7.94839642 0.80777742 11 0 C11.66 1.32 12.32 2.64 13 4 C12.01 4.66 11.02 5.32 10 6 C10 4.68 10 3.36 10 2 C5.545 2.495 5.545 2.495 1 3 C0.67 2.01 0.34 1.02 0 0 Z " fill="#D787A7" transform="translate(397,255)"/>
<path d="M0 0 C0.5775 0.226875 1.155 0.45375 1.75 0.6875 C1.13125 0.77 0.5125 0.8525 -0.125 0.9375 C-2.41352629 1.48698083 -2.41352629 1.48698083 -3.375 3.625 C-3.66375 4.305625 -3.9525 4.98625 -4.25 5.6875 C-4.91 6.3475 -5.57 7.0075 -6.25 7.6875 C-6.91 7.3575 -7.57 7.0275 -8.25 6.6875 C-6.65594781 2.8352072 -4.57967475 -0.63606594 0 0 Z " fill="#65678D" transform="translate(243.25,241.3125)"/>
<path d="M0 0 C0.99 0.33 1.98 0.66 3 1 C3 2.65 3 4.3 3 6 C3.66 6.33 4.32 6.66 5 7 C1.25 8.125 1.25 8.125 -1 7 C-0.67 6.34 -0.34 5.68 0 5 C-0.99 5.33 -1.98 5.66 -3 6 C-3 5.34 -3 4.68 -3 4 C-1.68 4 -0.36 4 1 4 C0.67 2.68 0.34 1.36 0 0 Z " fill="#EC65A8" transform="translate(148,233)"/>
<path d="M0 0 C0 1.32 0 2.64 0 4 C-2.64 4 -5.28 4 -8 4 C-8 3.34 -8 2.68 -8 2 C-5.09399739 0.74335022 -3.20395416 0 0 0 Z " fill="#DD497D" transform="translate(407,257)"/>
<path d="M0 0 C0.66 0 1.32 0 2 0 C1.25 6.625 1.25 6.625 -1 10 C-2 9 -2 9 -2.1875 6.125 C-2 3 -2 3 0 0 Z " fill="#9C419C" transform="translate(331,244)"/>
<path d="M0 0 C2.475 0.99 2.475 0.99 5 2 C5 5.3 5 8.6 5 12 C2.65085508 9.65085508 2.26859643 8.04320554 1.375 4.875 C1.11460937 3.96492187 0.85421875 3.05484375 0.5859375 2.1171875 C0.39257812 1.41851562 0.19921875 0.71984375 0 0 Z " fill="#AB75B0" transform="translate(316,244)"/>
<path d="M0 0 C0.33 1.65 0.66 3.3 1 5 C0.38125 5.12375 -0.2375 5.2475 -0.875 5.375 C-3.19120832 5.87197356 -3.19120832 5.87197356 -5 8 C-5.36625971 3.48279689 -5.36625971 3.48279689 -3.625 1.1875 C-2 0 -2 0 0 0 Z " fill="#CA4A8E" transform="translate(148,232)"/>
<path d="M0 0 C0.66 0 1.32 0 2 0 C2 1.65 2 3.3 2 5 C3.32 5 4.64 5 6 5 C6 5.66 6 6.32 6 7 C3.625 7.125 3.625 7.125 1 7 C0.34 6.34 -0.32 5.68 -1 5 C-0.625 2.375 -0.625 2.375 0 0 Z " fill="#7B7C7E" transform="translate(269,272)"/>
<path d="M0 0 C0.66 0 1.32 0 2 0 C2 2.97 2 5.94 2 9 C0.02 9 -1.96 9 -4 9 C-3.01 8.34 -2.02 7.68 -1 7 C-0.26393501 3.43230448 -0.26393501 3.43230448 0 0 Z " fill="#7D7E81" transform="translate(282,270)"/>
<path d="M0 0 C1.98 0.99 1.98 0.99 4 2 C3.67 3.98 3.34 5.96 3 8 C2.01 8 1.02 8 0 8 C0 5.36 0 2.72 0 0 Z " fill="#AEB2B4" transform="translate(367,271)"/>
<path d="M0 0 C3.0625 0.125 3.0625 0.125 5.0625 1.125 C4.7325 2.115 4.4025 3.105 4.0625 4.125 C1.7525 4.125 -0.5575 4.125 -2.9375 4.125 C-3.2675 3.135 -3.5975 2.145 -3.9375 1.125 C-2.9375 0.125 -2.9375 0.125 0 0 Z " fill="#979C9B" transform="translate(381.9375,269.875)"/>
<path d="M0 0 C2 3.875 2 3.875 2 5 C-0.97 4.67 -3.94 4.34 -7 4 C-7 3.34 -7 2.68 -7 2 C-4.69 1.34 -2.38 0.68 0 0 Z " fill="#363C71" transform="translate(249,255)"/>
<path d="M0 0 C0.66 0.66 1.32 1.32 2 2 C1.9765625 4.1640625 1.9765625 4.1640625 1.625 6.625 C1.51414063 7.44226563 1.40328125 8.25953125 1.2890625 9.1015625 C1.19367188 9.72804688 1.09828125 10.35453125 1 11 C-1.43769218 7.34346173 -1.23944439 5.30999899 -1 1 C-0.67 0.67 -0.34 0.34 0 0 Z " fill="#31335E" transform="translate(236,247)"/>
<path d="M0 0 C0.99 0 1.98 0 3 0 C3 0.99 3 1.98 3 3 C3.99 3.33 4.98 3.66 6 4 C5.01 4.66 4.02 5.32 3 6 C2.34 5.67 1.68 5.34 1 5 C1 5.66 1 6.32 1 7 C0.34 7 -0.32 7 -1 7 C-0.7525 6.1028125 -0.7525 6.1028125 -0.5 5.1875 C0.1114124 2.88655664 0.1114124 2.88655664 0 0 Z " fill="#4A4B83" transform="translate(296,244)"/>
<path d="M0 0 C2.86724686 0.57344937 3.8614515 0.8614515 6 3 C5 4 5 4 1.4375 4.0625 C0.303125 4.041875 -0.83125 4.02125 -2 4 C-1.34 2.68 -0.68 1.36 0 0 Z " fill="#CE568D" transform="translate(406,233)"/>
<path d="M0 0 C0.66 0 1.32 0 2 0 C1.67 1.98 1.34 3.96 1 6 C-0.66666667 6 -2.33333333 6 -4 6 C-2.84826645 3.53199953 -1.95216435 1.95216435 0 0 Z " fill="#61648D" transform="translate(190,232)"/>
<path d="M0 0 C0.66 0 1.32 0 2 0 C1.67 1.98 1.34 3.96 1 6 C0.34 6 -0.32 6 -1 6 C-0.67 6.99 -0.34 7.98 0 9 C-0.66 9 -1.32 9 -2 9 C-2.33 7.02 -2.66 5.04 -3 3 C-2.34 3 -1.68 3 -1 3 C-0.67 2.01 -0.34 1.02 0 0 Z " fill="#A3A5AB" transform="translate(343,270)"/>
<path d="M0 0 C0.66 0 1.32 0 2 0 C2 2.97 2 5.94 2 9 C0.68 9.33 -0.64 9.66 -2 10 C-1.34 6.7 -0.68 3.4 0 0 Z " fill="#7D7F85" transform="translate(221,268)"/>
<path d="M0 0 C2.31 0 4.62 0 7 0 C7 1.32 7 2.64 7 4 C5.35 3.67 3.7 3.34 2 3 C2 2.34 2 1.68 2 1 C1.34 0.67 0.68 0.34 0 0 Z " fill="#D93F80" transform="translate(378,250)"/>
<path d="M0 0 C-0.75 6.75 -0.75 6.75 -3 9 C-3.66 8.34 -4.32 7.68 -5 7 C-4.39816251 4.97954558 -3.72693904 2.97888961 -3 1 C-1 0 -1 0 0 0 Z " fill="#292A66" transform="translate(273,250)"/>
<path d="M0 0 C1.64574566 -0.02688151 3.29161413 -0.04634123 4.9375 -0.0625 C5.85402344 -0.07410156 6.77054687 -0.08570313 7.71484375 -0.09765625 C10 0 10 0 11 1 C11.04063832 2.66617115 11.042721 4.33388095 11 6 C10.484375 5.525625 9.96875 5.05125 9.4375 4.5625 C6.33217325 2.57190593 3.63367496 2.34939182 0 2 C0 1.34 0 0.68 0 0 Z " fill="#DE84AC" transform="translate(403,236)"/>
<path d="M0 0 C0.33 0 0.66 0 1 0 C0.67 2.31 0.34 4.62 0 7 C-1.32 7.33 -2.64 7.66 -4 8 C-4.33 6.02 -4.66 4.04 -5 2 C-4.67 2.99 -4.34 3.98 -4 5 C-3.34 5 -2.68 5 -2 5 C-1.34 3.35 -0.68 1.7 0 0 Z " fill="#393E76" transform="translate(126,229)"/>
<path d="M0 0 C0.66 0 1.32 0 2 0 C2.33 1.32 2.66 2.64 3 4 C3.66 3.01 4.32 2.02 5 1 C5 2.65 5 4.3 5 6 C3.35 6 1.7 6 0 6 C-1.24546405 3.50907189 -0.7767578 2.58919267 0 0 Z " fill="#D74C84" transform="translate(405,247)"/>
<path d="M0 0 C0.33 0 0.66 0 1 0 C1 3.96 1 7.92 1 12 C0.34 12 -0.32 12 -1 12 C-1.92470553 7.28400182 -2.22923777 4.32734391 0 0 Z " fill="#E98CC6" transform="translate(154,243)"/>
<path d="M0 0 C0.33 0 0.66 0 1 0 C1 1.98 1 3.96 1 6 C-0.32 6.33 -1.64 6.66 -3 7 C-3 5.02 -3 3.04 -3 1 C-2.01 1.495 -2.01 1.495 -1 2 C-0.67 1.34 -0.34 0.68 0 0 Z " fill="#D83386" transform="translate(135,235)"/>
<path d="M0 0 C0.99 0 1.98 0 3 0 C2.67 1.65 2.34 3.3 2 5 C0.68 5 -0.64 5 -2 5 C-1.125 1.125 -1.125 1.125 0 0 Z " fill="#BA57A9" transform="translate(146,225)"/>
<path d="M0 0 C2.625 0.9375 2.625 0.9375 5 2 C3.68 2.33 2.36 2.66 1 3 C0.67 4.32 0.34 5.64 0 7 C0 5.68 0 4.36 0 3 C-1.65 3 -3.3 3 -5 3 C-2 1 -2 1 0 0 Z " fill="#B8509C" transform="translate(155,224)"/>
<path d="M0 0 C0.99 0.66 1.98 1.32 3 2 C3.66 2 4.32 2 5 2 C5 2.99 5 3.98 5 5 C3.02 5 1.04 5 -1 5 C-1.33 4.01 -1.66 3.02 -2 2 C-1.34 2 -0.68 2 0 2 C0 1.34 0 0.68 0 0 Z " fill="#9A9A9D" transform="translate(245,274)"/>
<path d="M0 0 C0.66 0 1.32 0 2 0 C2.144375 0.763125 2.28875 1.52625 2.4375 2.3125 C2.9632594 5.08172908 2.9632594 5.08172908 4 8 C2.68 7.67 1.36 7.34 0 7 C0 4.69 0 2.38 0 0 Z " fill="#616365" transform="translate(233,268)"/>
<path d="M0 0 C0.99 0.33 1.98 0.66 3 1 C2.67 2.98 2.34 4.96 2 7 C0.68 7 -0.64 7 -2 7 C-2.66 6.01 -3.32 5.02 -4 4 C-2.68 3.67 -1.36 3.34 0 3 C0 2.01 0 1.02 0 0 Z " fill="#E560A1" transform="translate(385,250)"/>
<path d="M0 0 C0.99 0.33 1.98 0.66 3 1 C3.125 4.375 3.125 4.375 3 8 C2.34 8.66 1.68 9.32 1 10 C0.63720544 8.71073008 0.28503302 7.41846728 -0.0625 6.125 C-0.35833984 5.04605469 -0.35833984 5.04605469 -0.66015625 3.9453125 C-1 2 -1 2 0 0 Z " fill="#C64697" transform="translate(155,246)"/>
<path d="M0 0 C0.99 0.495 0.99 0.495 2 1 C3.99960012 1.039992 6.00047242 1.04346799 8 1 C7.34 2.32 6.68 3.64 6 5 C4.68 4.34 3.36 3.68 2 3 C1.67 3.66 1.34 4.32 1 5 C0.67 3.35 0.34 1.7 0 0 Z " fill="#D06FB5" transform="translate(141,246)"/>
<path d="M0 0 C2.67927341 4.01891012 2.15601248 6.24161923 2 11 C1.34 11 0.68 11 0 11 C-0.19491452 9.54263913 -0.38069358 8.08405407 -0.5625 6.625 C-0.66691406 5.81289062 -0.77132813 5.00078125 -0.87890625 4.1640625 C-1 2 -1 2 0 0 Z " fill="#8D4193" transform="translate(321,246)"/>
<path d="M0 0 C0.33 0 0.66 0 1 0 C1 1.98 1 3.96 1 6 C-0.97746603 6.73080266 -2.98072489 7.39421747 -5 8 C-5.66 7.67 -6.32 7.34 -7 7 C-6.67 6.01 -6.34 5.02 -6 4 C-3.03 4.495 -3.03 4.495 0 5 C0 3.35 0 1.7 0 0 Z " fill="#D970A1" transform="translate(371,241)"/>
<path d="M0 0 C2.5 1.375 2.5 1.375 5 3 C5 3.66 5 4.32 5 5 C3.02 5.33 1.04 5.66 -1 6 C-1.33 5.01 -1.66 4.02 -2 3 C-1.34 3 -0.68 3 0 3 C0 2.01 0 1.02 0 0 Z " fill="#B6478D" transform="translate(143,242)"/>
<path d="M0 0 C0.928125 0.7425 0.928125 0.7425 1.875 1.5 C3.83880904 3.19222773 3.83880904 3.19222773 6 3 C5.34 4.32 4.68 5.64 4 7 C1.525 6.01 1.525 6.01 -1 5 C-0.67 3.35 -0.34 1.7 0 0 Z " fill="#C975BA" transform="translate(332,237)"/>
<path d="M0 0 C0.33 0.99 0.66 1.98 1 3 C-0.65 4.65 -2.3 6.3 -4 8 C-4.33 7.34 -4.66 6.68 -5 6 C-2.59016393 1.29508197 -2.59016393 1.29508197 0 0 Z " fill="#5C5D7F" transform="translate(127,223)"/>
<path d="M0 0 C2.125 0.9375 2.125 0.9375 4 2 C3.01 3.485 3.01 3.485 2 5 C0.68 4.67 -0.64 4.34 -2 4 C-2 3.01 -2 2.02 -2 1 C-1.34 0.67 -0.68 0.34 0 0 Z " fill="#A87CB8" transform="translate(147,218)"/>
<path d="M0 0 C2.475 0.495 2.475 0.495 5 1 C4.34 2.32 3.68 3.64 3 5 C2.01 5 1.02 5 0 5 C0 3.35 0 1.7 0 0 Z " fill="#D36094" transform="translate(126,287)"/>
<path d="M0 0 C0.66 0 1.32 0 2 0 C2 2.31 2 4.62 2 7 C1.01 7 0.02 7 -1 7 C-0.67 4.69 -0.34 2.38 0 0 Z " fill="#66696A" transform="translate(333,272)"/>
<path d="M0 0 C0.99 0.33 1.98 0.66 3 1 C2.67 3.64 2.34 6.28 2 9 C1.71125 8.360625 1.4225 7.72125 1.125 7.0625 C0.17176549 4.84793921 0.17176549 4.84793921 -2 4 C-1.34 2.68 -0.68 1.36 0 0 Z " fill="#7D8393" transform="translate(346,270)"/>
<path d="M0 0 C0.33 0.66 0.66 1.32 1 2 C0.67 2.66 0.34 3.32 0 4 C-1.98 4 -3.96 4 -6 4 C-6.33 3.34 -6.66 2.68 -7 2 C-4.69 1.34 -2.38 0.68 0 0 Z " fill="#C889C3" transform="translate(170,265)"/>
<path d="M0 0 C1.98 0 3.96 0 6 0 C6.33 0.99 6.66 1.98 7 3 C4.69 3 2.38 3 0 3 C0 2.01 0 1.02 0 0 Z " fill="#A74A98" transform="translate(346,258)"/>
<path d="M0 0 C0.99 0.33 1.98 0.66 3 1 C2.67 1.99 2.34 2.98 2 4 C1.34 3.67 0.68 3.34 0 3 C-0.33 4.32 -0.66 5.64 -1 7 C-1.66 7 -2.32 7 -3 7 C-2.67 5.35 -2.34 3.7 -2 2 C-1.34 2 -0.68 2 0 2 C0 1.34 0 0.68 0 0 Z " fill="#24245D" transform="translate(240,251)"/>
<path d="M0 0 C0.99 0.33 1.98 0.66 3 1 C2.67 2.32 2.34 3.64 2 5 C0.68 5 -0.64 5 -2 5 C-2 4.01 -2 3.02 -2 2 C-1.34 2 -0.68 2 0 2 C0 1.34 0 0.68 0 0 Z " fill="#59608C" transform="translate(192,238)"/>
<path d="M0 0 C-1 2 -1 2 -3.8125 3.1875 C-6.85961076 3.96421451 -8.13749363 4.10096399 -11 3 C-7.16674383 0.29417212 -4.67461851 -0.32613618 0 0 Z " fill="#41316E" transform="translate(175,221)"/>
<path d="M0 0 C0.33 1.98 0.66 3.96 1 6 C-0.32 6.33 -1.64 6.66 -3 7 C-3 5.02 -3 3.04 -3 1 C-1 0 -1 0 0 0 Z " fill="#BBBEBF" transform="translate(329,272)"/>
<path d="M0 0 C2.125 0.9375 2.125 0.9375 4 2 C3.01 3.485 3.01 3.485 2 5 C1.34 5 0.68 5 0 5 C0 4.34 0 3.68 0 3 C-0.66 3 -1.32 3 -2 3 C-2 2.34 -2 1.68 -2 1 C-1.34 0.67 -0.68 0.34 0 0 Z " fill="#C27FAE" transform="translate(184,264)"/>
<path d="M0 0 C0.66 0.33 1.32 0.66 2 1 C2 2.98 2 4.96 2 7 C0.68 6.34 -0.64 5.68 -2 5 C-1.34 3.35 -0.68 1.7 0 0 Z " fill="#AD4A9B" transform="translate(178,257)"/>
<path d="M0 0 C0.66 0.66 1.32 1.32 2 2 C1.625 4.125 1.625 4.125 1 6 C0.67 5.34 0.34 4.68 0 4 C-0.66 4 -1.32 4 -2 4 C-2 4.66 -2 5.32 -2 6 C-2.66 5.67 -3.32 5.34 -4 5 C-2.68 3.35 -1.36 1.7 0 0 Z " fill="#6C6C90" transform="translate(107,261)"/>
<path d="M0 0 C0.144375 0.598125 0.28875 1.19625 0.4375 1.8125 C0.8872439 3.56150404 1.42892341 5.28677023 2 7 C1.01 7 0.02 7 -1 7 C-1 6.34 -1 5.68 -1 5 C-1.66 5 -2.32 5 -3 5 C-1.125 1.125 -1.125 1.125 0 0 Z " fill="#71739A" transform="translate(117,257)"/>
<path d="M0 0 C0.66 0 1.32 0 2 0 C2 0.66 2 1.32 2 2 C2.66 2.33 3.32 2.66 4 3 C2.02 4.32 0.04 5.64 -2 7 C-2 6.01 -2 5.02 -2 4 C-1.34 4 -0.68 4 0 4 C0 2.68 0 1.36 0 0 Z " fill="#696393" transform="translate(174,247)"/>
<path d="M0 0 C0.99 0.33 1.98 0.66 3 1 C3.625 3.875 3.625 3.875 4 7 C3.34 7.66 2.68 8.32 2 9 C1.34 6.03 0.68 3.06 0 0 Z " fill="#606389" transform="translate(309,242)"/>
<path d="M0 0 C2.64 0.33 5.28 0.66 8 1 C8 1.99 8 2.98 8 4 C7.67 3.34 7.34 2.68 7 2 C5.02 2.66 3.04 3.32 1 4 C0.67 2.68 0.34 1.36 0 0 Z " fill="#B867A1" transform="translate(345,241)"/>
<path d="M0 0 C0.33 0.66 0.66 1.32 1 2 C3.01669827 3.13350534 3.01669827 3.13350534 5 4 C2.03 6.475 2.03 6.475 -1 9 C-0.67 6.03 -0.34 3.06 0 0 Z " fill="#E28CCD" transform="translate(143,228)"/>
<path d="M0 0 C0 0.99 0 1.98 0 3 C1.65 3 3.3 3 5 3 C3.625 4.5 3.625 4.5 2 6 C1.34 6 0.68 6 0 6 C-0.103125 5.360625 -0.20625 4.72125 -0.3125 4.0625 C-0.539375 3.381875 -0.76625 2.70125 -1 2 C-1.99 1.67 -2.98 1.34 -4 1 C-2 0 -2 0 0 0 Z " fill="#CF8BB8" transform="translate(182,217)"/>
<path d="M0 0 C0.66 0 1.32 0 2 0 C2 0.66 2 1.32 2 2 C2.66 2 3.32 2 4 2 C4 2.66 4 3.32 4 4 C2.02 4.33 0.04 4.66 -2 5 C-1.34 3.35 -0.68 1.7 0 0 Z " fill="#A74297" transform="translate(171,265)"/>
<path d="M0 0 C2.1875 0.3125 2.1875 0.3125 4 1 C2.75 2.5625 2.75 2.5625 1 4 C-1.1875 3.6875 -1.1875 3.6875 -3 3 C-1.75 1.4375 -1.75 1.4375 0 0 Z " fill="#3E3472" transform="translate(164,261)"/>
<path d="M0 0 C1.80330533 3.60661066 2.46599103 6.08393425 3 10 C2.01 9.67 1.02 9.34 0 9 C0 6.03 0 3.06 0 0 Z " fill="#D681B3" transform="translate(137,240)"/>
<path d="" fill="#000000" transform="translate(0,0)"/>
</svg>
